<mxfile host="65bd71144e">
    <diagram id="C5RBs43oDa-KdzZeNtuy" name="Page-1">
        <mxGraphModel dx="1441" dy="215" grid="1" gridSize="10" guides="1" tooltips="1" connect="0" arrows="1" fold="1" page="1" pageScale="1" pageWidth="827" pageHeight="1169" math="0" shadow="0">
            <root>
                <mxCell id="WIyWlLk6GJQsqaUBKTNV-0"/>
                <mxCell id="WIyWlLk6GJQsqaUBKTNV-1" parent="WIyWlLk6GJQsqaUBKTNV-0"/>
                <mxCell id="M7CGMbNuYNeq0SnUNNgH-6" value="ทบทวนสัญลักษณ์" style="swimlane;fontFamily=Sarabun;fontSource=https%3A%2F%2Ffonts.googleapis.com%2Fcss%3Ffamily%3DSarabun;" parent="WIyWlLk6GJQsqaUBKTNV-1" vertex="1">
                    <mxGeometry x="-720" y="20" width="650" height="290" as="geometry"/>
                </mxCell>
                <mxCell id="M7CGMbNuYNeq0SnUNNgH-2" value="&lt;font data-font-src=&quot;https://fonts.googleapis.com/css?family=Sarabun&quot; face=&quot;Sarabun&quot;&gt;เริ่มต้น&lt;/font&gt;" style="ellipse;whiteSpace=wrap;html=1;" parent="M7CGMbNuYNeq0SnUNNgH-6" vertex="1">
                    <mxGeometry x="20" y="40" width="130" height="30" as="geometry"/>
                </mxCell>
                <mxCell id="M7CGMbNuYNeq0SnUNNgH-5" value="" style="endArrow=classic;html=1;rounded=0;" parent="M7CGMbNuYNeq0SnUNNgH-6" edge="1">
                    <mxGeometry width="50" height="50" relative="1" as="geometry">
                        <mxPoint x="84.5" y="70" as="sourcePoint"/>
                        <mxPoint x="84.5" y="120" as="targetPoint"/>
                    </mxGeometry>
                </mxCell>
                <mxCell id="M7CGMbNuYNeq0SnUNNgH-3" value="&lt;font face=&quot;Sarabun&quot;&gt;สิ้นสุด&lt;/font&gt;" style="ellipse;whiteSpace=wrap;html=1;" parent="M7CGMbNuYNeq0SnUNNgH-6" vertex="1">
                    <mxGeometry x="150" y="90" width="130" height="30" as="geometry"/>
                </mxCell>
                <mxCell id="M7CGMbNuYNeq0SnUNNgH-4" value="" style="endArrow=classic;html=1;rounded=0;" parent="M7CGMbNuYNeq0SnUNNgH-6" edge="1">
                    <mxGeometry width="50" height="50" relative="1" as="geometry">
                        <mxPoint x="214.5" y="40" as="sourcePoint"/>
                        <mxPoint x="214.5" y="90" as="targetPoint"/>
                    </mxGeometry>
                </mxCell>
                <mxCell id="mvioNwK95yMqdUQ73LqQ-0" value="กระบวนการ" style="rounded=0;whiteSpace=wrap;html=1;fontFamily=Sarabun;fontSource=https%3A%2F%2Ffonts.googleapis.com%2Fcss%3Ffamily%3DSarabun;" parent="M7CGMbNuYNeq0SnUNNgH-6" vertex="1">
                    <mxGeometry x="320" y="70" width="120" height="30" as="geometry"/>
                </mxCell>
                <mxCell id="mvioNwK95yMqdUQ73LqQ-1" value="" style="endArrow=classic;html=1;rounded=0;" parent="M7CGMbNuYNeq0SnUNNgH-6" edge="1">
                    <mxGeometry width="50" height="50" relative="1" as="geometry">
                        <mxPoint x="379" y="40" as="sourcePoint"/>
                        <mxPoint x="379.5" y="70" as="targetPoint"/>
                    </mxGeometry>
                </mxCell>
                <mxCell id="mvioNwK95yMqdUQ73LqQ-2" value="" style="endArrow=classic;html=1;rounded=0;" parent="M7CGMbNuYNeq0SnUNNgH-6" edge="1">
                    <mxGeometry width="50" height="50" relative="1" as="geometry">
                        <mxPoint x="379.75" y="100" as="sourcePoint"/>
                        <mxPoint x="380.25" y="130" as="targetPoint"/>
                    </mxGeometry>
                </mxCell>
                <mxCell id="mvioNwK95yMqdUQ73LqQ-3" value="ประโยคเงื่อนไข" style="rhombus;whiteSpace=wrap;html=1;fontFamily=Sarabun;fontSource=https%3A%2F%2Ffonts.googleapis.com%2Fcss%3Ffamily%3DSarabun;" parent="M7CGMbNuYNeq0SnUNNgH-6" vertex="1">
                    <mxGeometry x="490" y="60" width="100" height="60" as="geometry"/>
                </mxCell>
                <mxCell id="mvioNwK95yMqdUQ73LqQ-4" value="" style="endArrow=classic;html=1;rounded=0;" parent="M7CGMbNuYNeq0SnUNNgH-6" edge="1">
                    <mxGeometry width="50" height="50" relative="1" as="geometry">
                        <mxPoint x="539.71" y="30" as="sourcePoint"/>
                        <mxPoint x="540.21" y="60" as="targetPoint"/>
                    </mxGeometry>
                </mxCell>
                <mxCell id="mvioNwK95yMqdUQ73LqQ-5" value="" style="endArrow=classic;html=1;rounded=0;" parent="M7CGMbNuYNeq0SnUNNgH-6" edge="1">
                    <mxGeometry width="50" height="50" relative="1" as="geometry">
                        <mxPoint x="539.71" y="120" as="sourcePoint"/>
                        <mxPoint x="540" y="175" as="targetPoint"/>
                    </mxGeometry>
                </mxCell>
                <mxCell id="mvioNwK95yMqdUQ73LqQ-7" value="จริง" style="edgeLabel;html=1;align=center;verticalAlign=middle;resizable=0;points=[];fontFamily=Sarabun;fontSource=https%3A%2F%2Ffonts.googleapis.com%2Fcss%3Ffamily%3DSarabun;" parent="mvioNwK95yMqdUQ73LqQ-5" vertex="1" connectable="0">
                    <mxGeometry x="-0.4142" y="-1" relative="1" as="geometry">
                        <mxPoint as="offset"/>
                    </mxGeometry>
                </mxCell>
                <mxCell id="mvioNwK95yMqdUQ73LqQ-6" value="" style="endArrow=classic;html=1;rounded=0;exitX=1;exitY=0.5;exitDx=0;exitDy=0;" parent="M7CGMbNuYNeq0SnUNNgH-6" source="mvioNwK95yMqdUQ73LqQ-3" edge="1">
                    <mxGeometry width="50" height="50" relative="1" as="geometry">
                        <mxPoint x="620" y="95" as="sourcePoint"/>
                        <mxPoint x="610" y="175" as="targetPoint"/>
                        <Array as="points">
                            <mxPoint x="610" y="90"/>
                        </Array>
                    </mxGeometry>
                </mxCell>
                <mxCell id="mvioNwK95yMqdUQ73LqQ-8" value="&lt;font data-font-src=&quot;https://fonts.googleapis.com/css?family=Sarabun&quot; face=&quot;Sarabun&quot;&gt;เท็จ&lt;/font&gt;" style="edgeLabel;html=1;align=center;verticalAlign=middle;resizable=0;points=[];" parent="mvioNwK95yMqdUQ73LqQ-6" vertex="1" connectable="0">
                    <mxGeometry x="-0.0019" y="-2" relative="1" as="geometry">
                        <mxPoint as="offset"/>
                    </mxGeometry>
                </mxCell>
                <mxCell id="mvioNwK95yMqdUQ73LqQ-9" value="&lt;font data-font-src=&quot;https://fonts.googleapis.com/css?family=Sarabun&quot; face=&quot;Sarabun&quot;&gt;ฟังก์ชัน/โมดูล&lt;/font&gt;" style="shape=process;whiteSpace=wrap;html=1;backgroundOutline=1;" parent="M7CGMbNuYNeq0SnUNNgH-6" vertex="1">
                    <mxGeometry x="25" y="180" width="120" height="30" as="geometry"/>
                </mxCell>
                <mxCell id="mvioNwK95yMqdUQ73LqQ-11" value="" style="endArrow=classic;html=1;rounded=0;" parent="M7CGMbNuYNeq0SnUNNgH-6" edge="1">
                    <mxGeometry width="50" height="50" relative="1" as="geometry">
                        <mxPoint x="84.70999999999998" y="150" as="sourcePoint"/>
                        <mxPoint x="85.20999999999998" y="180" as="targetPoint"/>
                    </mxGeometry>
                </mxCell>
                <mxCell id="mvioNwK95yMqdUQ73LqQ-12" value="" style="endArrow=classic;html=1;rounded=0;" parent="M7CGMbNuYNeq0SnUNNgH-6" edge="1">
                    <mxGeometry width="50" height="50" relative="1" as="geometry">
                        <mxPoint x="84.70999999999998" y="210" as="sourcePoint"/>
                        <mxPoint x="85.20999999999998" y="240" as="targetPoint"/>
                    </mxGeometry>
                </mxCell>
                <mxCell id="mvioNwK95yMqdUQ73LqQ-13" value="" style="strokeWidth=2;html=1;shape=mxgraph.flowchart.start_2;whiteSpace=wrap;" parent="M7CGMbNuYNeq0SnUNNgH-6" vertex="1">
                    <mxGeometry x="205" y="185" width="20" height="20" as="geometry"/>
                </mxCell>
                <mxCell id="mvioNwK95yMqdUQ73LqQ-16" value="" style="endArrow=classic;html=1;rounded=0;" parent="M7CGMbNuYNeq0SnUNNgH-6" edge="1">
                    <mxGeometry width="50" height="50" relative="1" as="geometry">
                        <mxPoint x="214.70999999999998" y="155" as="sourcePoint"/>
                        <mxPoint x="215.20999999999998" y="185" as="targetPoint"/>
                    </mxGeometry>
                </mxCell>
                <mxCell id="mvioNwK95yMqdUQ73LqQ-17" value="" style="endArrow=classic;html=1;rounded=0;entryX=0;entryY=0.5;entryDx=0;entryDy=0;entryPerimeter=0;" parent="M7CGMbNuYNeq0SnUNNgH-6" target="mvioNwK95yMqdUQ73LqQ-13" edge="1">
                    <mxGeometry width="50" height="50" relative="1" as="geometry">
                        <mxPoint x="189.99999999999997" y="155" as="sourcePoint"/>
                        <mxPoint x="190.49999999999997" y="185" as="targetPoint"/>
                        <Array as="points">
                            <mxPoint x="190" y="180"/>
                        </Array>
                    </mxGeometry>
                </mxCell>
                <mxCell id="mvioNwK95yMqdUQ73LqQ-18" value="" style="endArrow=classic;html=1;rounded=0;entryX=1;entryY=0.5;entryDx=0;entryDy=0;entryPerimeter=0;" parent="M7CGMbNuYNeq0SnUNNgH-6" target="mvioNwK95yMqdUQ73LqQ-13" edge="1">
                    <mxGeometry width="50" height="50" relative="1" as="geometry">
                        <mxPoint x="239.99999999999997" y="155" as="sourcePoint"/>
                        <mxPoint x="240.49999999999997" y="185" as="targetPoint"/>
                        <Array as="points">
                            <mxPoint x="240" y="180"/>
                        </Array>
                    </mxGeometry>
                </mxCell>
                <mxCell id="mvioNwK95yMqdUQ73LqQ-19" value="" style="endArrow=classic;html=1;rounded=0;" parent="M7CGMbNuYNeq0SnUNNgH-6" edge="1">
                    <mxGeometry width="50" height="50" relative="1" as="geometry">
                        <mxPoint x="214.70999999999998" y="205" as="sourcePoint"/>
                        <mxPoint x="215.20999999999998" y="235" as="targetPoint"/>
                    </mxGeometry>
                </mxCell>
                <mxCell id="mvioNwK95yMqdUQ73LqQ-20" value="&lt;font data-font-src=&quot;https://fonts.googleapis.com/css?family=Sarabun&quot; face=&quot;Sarabun&quot;&gt;ตัวเชื่อม&lt;/font&gt;" style="text;html=1;align=center;verticalAlign=middle;resizable=0;points=[];autosize=1;strokeColor=none;fillColor=none;" parent="M7CGMbNuYNeq0SnUNNgH-6" vertex="1">
                    <mxGeometry x="220" y="190" width="60" height="30" as="geometry"/>
                </mxCell>
                <mxCell id="mvioNwK95yMqdUQ73LqQ-25" value="" style="endArrow=classic;html=1;rounded=0;" parent="M7CGMbNuYNeq0SnUNNgH-6" edge="1">
                    <mxGeometry width="50" height="50" relative="1" as="geometry">
                        <mxPoint x="353.71" y="165" as="sourcePoint"/>
                        <mxPoint x="354.21" y="195" as="targetPoint"/>
                    </mxGeometry>
                </mxCell>
                <mxCell id="mvioNwK95yMqdUQ73LqQ-21" value="" style="verticalLabelPosition=bottom;verticalAlign=top;html=1;shape=offPageConnector;rounded=0;size=0.5;" parent="M7CGMbNuYNeq0SnUNNgH-6" vertex="1">
                    <mxGeometry x="339" y="195" width="30" height="30" as="geometry"/>
                </mxCell>
                <mxCell id="mvioNwK95yMqdUQ73LqQ-26" value="" style="endArrow=classic;html=1;rounded=0;" parent="M7CGMbNuYNeq0SnUNNgH-6" edge="1">
                    <mxGeometry width="50" height="50" relative="1" as="geometry">
                        <mxPoint x="405.71" y="195" as="sourcePoint"/>
                        <mxPoint x="406.21" y="225" as="targetPoint"/>
                    </mxGeometry>
                </mxCell>
                <mxCell id="mvioNwK95yMqdUQ73LqQ-27" value="" style="verticalLabelPosition=bottom;verticalAlign=top;html=1;shape=offPageConnector;rounded=0;size=0.5;" parent="M7CGMbNuYNeq0SnUNNgH-6" vertex="1">
                    <mxGeometry x="391" y="165" width="30" height="30" as="geometry"/>
                </mxCell>
                <mxCell id="mvioNwK95yMqdUQ73LqQ-28" value="หน้าต่อไป" style="text;html=1;align=center;verticalAlign=middle;resizable=0;points=[];autosize=1;strokeColor=none;fillColor=none;fontFamily=Sarabun;fontSource=https%3A%2F%2Ffonts.googleapis.com%2Fcss%3Ffamily%3DSarabun;" parent="M7CGMbNuYNeq0SnUNNgH-6" vertex="1">
                    <mxGeometry x="345" y="220" width="70" height="30" as="geometry"/>
                </mxCell>
                <mxCell id="mvioNwK95yMqdUQ73LqQ-29" value="ก" style="text;html=1;align=center;verticalAlign=middle;resizable=0;points=[];autosize=1;strokeColor=none;fillColor=none;fontFamily=Sarabun;fontSource=https%3A%2F%2Ffonts.googleapis.com%2Fcss%3Ffamily%3DSarabun;" parent="M7CGMbNuYNeq0SnUNNgH-6" vertex="1">
                    <mxGeometry x="339" y="190" width="30" height="30" as="geometry"/>
                </mxCell>
                <mxCell id="mvioNwK95yMqdUQ73LqQ-30" value="ก" style="text;html=1;align=center;verticalAlign=middle;resizable=0;points=[];autosize=1;strokeColor=none;fillColor=none;fontFamily=Sarabun;fontSource=https%3A%2F%2Ffonts.googleapis.com%2Fcss%3Ffamily%3DSarabun;" parent="M7CGMbNuYNeq0SnUNNgH-6" vertex="1">
                    <mxGeometry x="391" y="160" width="30" height="30" as="geometry"/>
                </mxCell>
                <mxCell id="mvioNwK95yMqdUQ73LqQ-32" value="แสดงผล/รับค่า" style="shape=parallelogram;perimeter=parallelogramPerimeter;whiteSpace=wrap;html=1;fixedSize=1;fontFamily=Sarabun;fontSource=https%3A%2F%2Ffonts.googleapis.com%2Fcss%3Ffamily%3DSarabun;" parent="M7CGMbNuYNeq0SnUNNgH-6" vertex="1">
                    <mxGeometry x="450" y="210" width="120" height="30" as="geometry"/>
                </mxCell>
                <mxCell id="mvioNwK95yMqdUQ73LqQ-33" value="" style="endArrow=classic;html=1;rounded=0;" parent="M7CGMbNuYNeq0SnUNNgH-6" edge="1">
                    <mxGeometry width="50" height="50" relative="1" as="geometry">
                        <mxPoint x="509.71" y="180" as="sourcePoint"/>
                        <mxPoint x="510.21" y="210" as="targetPoint"/>
                    </mxGeometry>
                </mxCell>
                <mxCell id="mvioNwK95yMqdUQ73LqQ-34" value="" style="endArrow=classic;html=1;rounded=0;" parent="M7CGMbNuYNeq0SnUNNgH-6" edge="1">
                    <mxGeometry width="50" height="50" relative="1" as="geometry">
                        <mxPoint x="509.71" y="240" as="sourcePoint"/>
                        <mxPoint x="510.21" y="270" as="targetPoint"/>
                    </mxGeometry>
                </mxCell>
                <mxCell id="mvioNwK95yMqdUQ73LqQ-36" value="แก้ไขโจทย์ปัญหา" style="swimlane;fontFamily=Sarabun;fontSource=https%3A%2F%2Ffonts.googleapis.com%2Fcss%3Ffamily%3DSarabun;" parent="WIyWlLk6GJQsqaUBKTNV-1" vertex="1">
                    <mxGeometry x="-700" y="661" width="647.5" height="8829" as="geometry"/>
                </mxCell>
                <mxCell id="19" style="edgeStyle=none;html=1;exitX=0.5;exitY=1;exitDx=0;exitDy=0;entryX=0.5;entryY=0;entryDx=0;entryDy=0;" parent="mvioNwK95yMqdUQ73LqQ-36" source="mvioNwK95yMqdUQ73LqQ-35" target="11" edge="1">
                    <mxGeometry relative="1" as="geometry"/>
                </mxCell>
                <mxCell id="mvioNwK95yMqdUQ73LqQ-35" value="&lt;font data-font-src=&quot;https://fonts.googleapis.com/css?family=Sarabun&quot; face=&quot;Sarabun&quot;&gt;เริ่มต้น&lt;/font&gt;" style="ellipse;whiteSpace=wrap;html=1;" parent="mvioNwK95yMqdUQ73LqQ-36" vertex="1">
                    <mxGeometry x="260" y="40" width="130" height="30" as="geometry"/>
                </mxCell>
                <mxCell id="22" value="" style="edgeStyle=none;html=1;" parent="mvioNwK95yMqdUQ73LqQ-36" source="8" target="20" edge="1">
                    <mxGeometry relative="1" as="geometry"/>
                </mxCell>
                <mxCell id="8" value="" style="shape=parallelogram;perimeter=parallelogramPerimeter;whiteSpace=wrap;html=1;fixedSize=1;" parent="mvioNwK95yMqdUQ73LqQ-36" vertex="1">
                    <mxGeometry x="210" y="99" width="220" height="230" as="geometry"/>
                </mxCell>
                <mxCell id="9" value="&lt;span style=&quot;font-family: Sarabun; font-size: 14px; text-align: left;&quot;&gt;กาแฟอเมริกาโน่ร้อน 35บาท&lt;/span&gt;" style="text;strokeColor=none;align=center;fillColor=none;html=1;verticalAlign=middle;whiteSpace=wrap;rounded=0;" parent="mvioNwK95yMqdUQ73LqQ-36" vertex="1">
                    <mxGeometry x="232.5" y="130" width="185" height="30" as="geometry"/>
                </mxCell>
                <mxCell id="11" value="&lt;div style=&quot;text-align: left;&quot;&gt;&lt;span style=&quot;background-color: initial; font-size: 14px;&quot;&gt;&lt;font face=&quot;Sarabun&quot;&gt;เครื่องดื่ม&lt;/font&gt;&lt;/span&gt;&lt;/div&gt;" style="text;strokeColor=none;align=center;fillColor=none;html=1;verticalAlign=middle;whiteSpace=wrap;rounded=0;" parent="mvioNwK95yMqdUQ73LqQ-36" vertex="1">
                    <mxGeometry x="265" y="100" width="120" height="30" as="geometry"/>
                </mxCell>
                <mxCell id="12" value="&lt;span style=&quot;font-family: Sarabun; font-size: 14px; text-align: left;&quot;&gt;ลาเต้เย็น 45 บาท&lt;/span&gt;&lt;span style=&quot;color: rgba(0, 0, 0, 0); font-family: monospace; font-size: 0px; text-align: start;&quot;&gt;%3CmxGraphModel%3E%3Croot%3E%3CmxCell%20id%3D%220%22%2F%3E%3CmxCell%20id%3D%221%22%20parent%3D%220%22%2F%3E%3CmxCell%20id%3D%222%22%20value%3D%22%26lt%3Bspan%20style%3D%26quot%3Bfont-family%3A%20Sarabun%3B%20font-size%3A%2014px%3B%20text-align%3A%20left%3B%26quot%3B%26gt%3B%E0%B8%81%E0%B8%B2%E0%B9%81%E0%B8%9F%E0%B8%AD%E0%B9%80%E0%B8%A1%E0%B8%A3%E0%B8%B4%E0%B8%81%E0%B8%B2%E0%B9%82%E0%B8%99%E0%B9%88%E0%B8%A3%E0%B9%89%E0%B8%AD%E0%B8%99%26lt%3B%2Fspan%26gt%3B%22%20style%3D%22text%3BstrokeColor%3Dnone%3Balign%3Dcenter%3BfillColor%3Dnone%3Bhtml%3D1%3BverticalAlign%3Dmiddle%3BwhiteSpace%3Dwrap%3Brounded%3D0%3B%22%20vertex%3D%221%22%20parent%3D%221%22%3E%3CmxGeometry%20x%3D%22-452.5%22%20y%3D%22810%22%20width%3D%22120%22%20height%3D%2230%22%20as%3D%22geometry%22%2F%3E%3C%2FmxCell%3E%3C%2Froot%3E%3C%2FmxGraphModel%3E&lt;/span&gt;" style="text;strokeColor=none;align=center;fillColor=none;html=1;verticalAlign=middle;whiteSpace=wrap;rounded=0;" parent="mvioNwK95yMqdUQ73LqQ-36" vertex="1">
                    <mxGeometry x="260" y="160" width="120" height="30" as="geometry"/>
                </mxCell>
                <mxCell id="13" value="&lt;span style=&quot;font-family: Sarabun; font-size: 14px; text-align: left;&quot;&gt;น้ำเปล่า 10 บาท&lt;/span&gt;" style="text;strokeColor=none;align=center;fillColor=none;html=1;verticalAlign=middle;whiteSpace=wrap;rounded=0;" parent="mvioNwK95yMqdUQ73LqQ-36" vertex="1">
                    <mxGeometry x="260" y="190" width="120" height="30" as="geometry"/>
                </mxCell>
                <mxCell id="14" value="&lt;div style=&quot;text-align: left;&quot;&gt;&lt;span style=&quot;background-color: initial; font-size: 14px;&quot;&gt;&lt;font face=&quot;Sarabun&quot;&gt;ขนม&lt;/font&gt;&lt;/span&gt;&lt;/div&gt;" style="text;strokeColor=none;align=center;fillColor=none;html=1;verticalAlign=middle;whiteSpace=wrap;rounded=0;" parent="mvioNwK95yMqdUQ73LqQ-36" vertex="1">
                    <mxGeometry x="260" y="227" width="120" height="30" as="geometry"/>
                </mxCell>
                <mxCell id="16" value="&lt;div style=&quot;text-align: left;&quot;&gt;&lt;font face=&quot;Sarabun&quot;&gt;&lt;span style=&quot;font-size: 14px;&quot;&gt;ขนมชั้น 5 บาท&lt;/span&gt;&lt;/font&gt;&lt;/div&gt;" style="text;strokeColor=none;align=center;fillColor=none;html=1;verticalAlign=middle;whiteSpace=wrap;rounded=0;" parent="mvioNwK95yMqdUQ73LqQ-36" vertex="1">
                    <mxGeometry x="260" y="251" width="120" height="30" as="geometry"/>
                </mxCell>
                <mxCell id="17" value="&lt;div style=&quot;text-align: left;&quot;&gt;&lt;font face=&quot;Sarabun&quot;&gt;&lt;span style=&quot;font-size: 14px;&quot;&gt;ฝอยทอง 15 บาท&lt;/span&gt;&lt;/font&gt;&lt;/div&gt;" style="text;strokeColor=none;align=center;fillColor=none;html=1;verticalAlign=middle;whiteSpace=wrap;rounded=0;" parent="mvioNwK95yMqdUQ73LqQ-36" vertex="1">
                    <mxGeometry x="260" y="270" width="120" height="30" as="geometry"/>
                </mxCell>
                <mxCell id="18" value="&lt;div style=&quot;text-align: left;&quot;&gt;&lt;span style=&quot;background-color: initial; font-size: 14px;&quot;&gt;&lt;font face=&quot;Sarabun&quot;&gt;ลำไยอบแห้ง 50 บาท&lt;/font&gt;&lt;/span&gt;&lt;/div&gt;" style="text;strokeColor=none;align=center;fillColor=none;html=1;verticalAlign=middle;whiteSpace=wrap;rounded=0;" parent="mvioNwK95yMqdUQ73LqQ-36" vertex="1">
                    <mxGeometry x="260" y="290" width="120" height="30" as="geometry"/>
                </mxCell>
                <mxCell id="24" style="edgeStyle=none;html=1;exitX=0.5;exitY=1;exitDx=0;exitDy=0;entryX=0.5;entryY=0;entryDx=0;entryDy=0;" parent="mvioNwK95yMqdUQ73LqQ-36" source="20" target="23" edge="1">
                    <mxGeometry relative="1" as="geometry"/>
                </mxCell>
                <mxCell id="20" value="กรุณารอ 5&amp;nbsp; วินาทีเพื่อเลือกสินค้าและจำนวนสินค้า" style="shape=parallelogram;perimeter=parallelogramPerimeter;whiteSpace=wrap;html=1;fixedSize=1;" parent="mvioNwK95yMqdUQ73LqQ-36" vertex="1">
                    <mxGeometry x="240" y="370" width="160" height="90" as="geometry"/>
                </mxCell>
                <mxCell id="26" value="" style="edgeStyle=none;html=1;" parent="mvioNwK95yMqdUQ73LqQ-36" source="23" target="25" edge="1">
                    <mxGeometry relative="1" as="geometry"/>
                </mxCell>
                <mxCell id="23" value="35=A 25=B 10=C 5=O 20=E 50=F 0=G H=จำนวนทสินค้าที่ลูกค้าเลือก &lt;br&gt;F=AXH, FRATE=BXH,&amp;nbsp;FPAO=CXH,&amp;nbsp;FSUNSS=OXH,&amp;nbsp;FFOY=EXH,&amp;nbsp;FLUMYAI=JXH&amp;nbsp;&lt;br&gt;MANYMAGA=50, MANYRATE=50,&amp;nbsp;MANYPAO=50,&amp;nbsp;MANYSUNSS=50,&amp;nbsp;MANYFOY=50,&amp;nbsp;MANYLUMYAI=50&lt;br&gt;MANYFH=500,&amp;nbsp;MANYOH=500,&amp;nbsp;MANYFT=500,&amp;nbsp;MANYTT=500,&amp;nbsp;MANYTB=500,&amp;nbsp;MANYFB=500,&amp;nbsp;MANYOB=500&lt;br&gt;PFMAGA=5,&amp;nbsp;PFRATE=6,&amp;nbsp;PFPAO=2,&amp;nbsp;PFSUNCC=3,&amp;nbsp;PFPOY=7,&amp;nbsp;PFLUMYAI=10&amp;nbsp;" style="whiteSpace=wrap;html=1;" parent="mvioNwK95yMqdUQ73LqQ-36" vertex="1">
                    <mxGeometry x="30" y="500" width="590" height="120" as="geometry"/>
                </mxCell>
                <mxCell id="30" value="" style="edgeStyle=none;html=1;" parent="mvioNwK95yMqdUQ73LqQ-36" source="25" target="29" edge="1">
                    <mxGeometry relative="1" as="geometry"/>
                </mxCell>
                <mxCell id="25" value="คุณต้องการกาแฟอเมริกาโน่หรือไม่" style="shape=parallelogram;perimeter=parallelogramPerimeter;whiteSpace=wrap;html=1;fixedSize=1;" parent="mvioNwK95yMqdUQ73LqQ-36" vertex="1">
                    <mxGeometry x="263.75" y="639" width="120" height="60" as="geometry"/>
                </mxCell>
                <mxCell id="27" value="ลูกค้ากดปุ่มตกลง" style="rhombus;whiteSpace=wrap;html=1;" parent="mvioNwK95yMqdUQ73LqQ-36" vertex="1">
                    <mxGeometry x="130" y="840" width="80" height="80" as="geometry"/>
                </mxCell>
                <mxCell id="29" value="ปุ่มไม่ต้องการ,ปุ่มตกลง" style="shape=parallelogram;perimeter=parallelogramPerimeter;whiteSpace=wrap;html=1;fixedSize=1;" parent="mvioNwK95yMqdUQ73LqQ-36" vertex="1">
                    <mxGeometry x="247.5" y="719" width="140" height="70" as="geometry"/>
                </mxCell>
                <mxCell id="38" value="" style="edgeStyle=orthogonalEdgeStyle;html=1;" parent="mvioNwK95yMqdUQ73LqQ-36" source="32" target="37" edge="1">
                    <mxGeometry relative="1" as="geometry"/>
                </mxCell>
                <mxCell id="32" value="กรุณากดจำนวนที่ต้องการ" style="shape=parallelogram;perimeter=parallelogramPerimeter;whiteSpace=wrap;html=1;fixedSize=1;" parent="mvioNwK95yMqdUQ73LqQ-36" vertex="1">
                    <mxGeometry x="457.5" y="970" width="120" height="60" as="geometry"/>
                </mxCell>
                <mxCell id="35" value="" style="edgeStyle=segmentEdgeStyle;endArrow=classic;html=1;curved=0;rounded=0;endSize=8;startSize=8;sourcePerimeterSpacing=0;targetPerimeterSpacing=0;entryX=0.5;entryY=0;entryDx=0;entryDy=0;exitX=1;exitY=0.5;exitDx=0;exitDy=0;" parent="mvioNwK95yMqdUQ73LqQ-36" source="27" target="32" edge="1">
                    <mxGeometry width="100" relative="1" as="geometry">
                        <mxPoint x="327.5" y="860" as="sourcePoint"/>
                        <mxPoint x="517.5" y="930" as="targetPoint"/>
                        <Array as="points">
                            <mxPoint x="517.5" y="880"/>
                        </Array>
                    </mxGeometry>
                </mxCell>
                <mxCell id="52" value="&lt;span style=&quot;font-size: 36px;&quot;&gt;T&lt;/span&gt;" style="edgeLabel;html=1;align=center;verticalAlign=middle;resizable=0;points=[];" parent="35" vertex="1" connectable="0">
                    <mxGeometry x="-0.4077" y="1" relative="1" as="geometry">
                        <mxPoint as="offset"/>
                    </mxGeometry>
                </mxCell>
                <mxCell id="36" value="" style="edgeStyle=segmentEdgeStyle;endArrow=classic;html=1;curved=0;rounded=0;endSize=8;startSize=8;sourcePerimeterSpacing=0;targetPerimeterSpacing=0;entryX=0.5;entryY=0;entryDx=0;entryDy=0;exitX=0.5;exitY=1;exitDx=0;exitDy=0;" parent="mvioNwK95yMqdUQ73LqQ-36" source="29" target="27" edge="1">
                    <mxGeometry width="100" relative="1" as="geometry">
                        <mxPoint x="297.5" y="800" as="sourcePoint"/>
                        <mxPoint x="397.5" y="840" as="targetPoint"/>
                        <Array as="points">
                            <mxPoint x="318" y="810"/>
                            <mxPoint x="170" y="810"/>
                        </Array>
                    </mxGeometry>
                </mxCell>
                <mxCell id="37" value="AxH=FMAGA" style="whiteSpace=wrap;html=1;" parent="mvioNwK95yMqdUQ73LqQ-36" vertex="1">
                    <mxGeometry x="471.25" y="1074" width="92.5" height="36" as="geometry"/>
                </mxCell>
                <mxCell id="39" value="กรุณารอ3วินาทีเพื่อไปยัง&lt;br&gt;รายการถัดไป" style="shape=parallelogram;perimeter=parallelogramPerimeter;whiteSpace=wrap;html=1;fixedSize=1;" parent="mvioNwK95yMqdUQ73LqQ-36" vertex="1">
                    <mxGeometry x="215" y="1190" width="170" height="80" as="geometry"/>
                </mxCell>
                <mxCell id="40" value="" style="edgeStyle=segmentEdgeStyle;endArrow=classic;html=1;curved=0;rounded=0;endSize=8;startSize=8;sourcePerimeterSpacing=0;targetPerimeterSpacing=0;exitX=0.5;exitY=1;exitDx=0;exitDy=0;entryX=0.5;entryY=0;entryDx=0;entryDy=0;" parent="mvioNwK95yMqdUQ73LqQ-36" source="37" target="39" edge="1">
                    <mxGeometry width="100" relative="1" as="geometry">
                        <mxPoint x="227.5" y="1080" as="sourcePoint"/>
                        <mxPoint x="217.5" y="1150" as="targetPoint"/>
                        <Array as="points">
                            <mxPoint x="518" y="1140"/>
                            <mxPoint x="300" y="1140"/>
                        </Array>
                    </mxGeometry>
                </mxCell>
                <mxCell id="49" value="" style="shape=waypoint;sketch=0;size=6;pointerEvents=1;points=[];fillColor=none;resizable=0;rotatable=0;perimeter=centerPerimeter;snapToPoint=1;" parent="mvioNwK95yMqdUQ73LqQ-36" vertex="1">
                    <mxGeometry x="290" y="1130" width="20" height="20" as="geometry"/>
                </mxCell>
                <mxCell id="55" value="&lt;span style=&quot;font-size: 36px;&quot;&gt;F&lt;/span&gt;" style="edgeLabel;html=1;align=center;verticalAlign=middle;resizable=0;points=[];" parent="mvioNwK95yMqdUQ73LqQ-36" vertex="1" connectable="0">
                    <mxGeometry x="77.49705882352976" y="990" as="geometry">
                        <mxPoint x="-16" y="-20" as="offset"/>
                    </mxGeometry>
                </mxCell>
                <mxCell id="221" value="" style="edgeStyle=orthogonalEdgeStyle;html=1;fontFamily=Helvetica;fontSize=12;" parent="mvioNwK95yMqdUQ73LqQ-36" source="203" target="205" edge="1">
                    <mxGeometry relative="1" as="geometry"/>
                </mxCell>
                <mxCell id="203" value="&lt;font style=&quot;font-size: 12px;&quot; face=&quot;Helvetica&quot;&gt;กำลังคำนวณรายการ&lt;/font&gt;" style="shape=parallelogram;perimeter=parallelogramPerimeter;whiteSpace=wrap;html=1;fixedSize=1;fontFamily=Comic Sans MS;fontSize=36;" parent="mvioNwK95yMqdUQ73LqQ-36" vertex="1">
                    <mxGeometry x="260" y="4820" width="170" height="60" as="geometry"/>
                </mxCell>
                <mxCell id="223" value="" style="edgeStyle=none;html=1;" parent="mvioNwK95yMqdUQ73LqQ-36" source="205" target="222" edge="1">
                    <mxGeometry relative="1" as="geometry"/>
                </mxCell>
                <mxCell id="205" value="ยอดที่ต้องจ่าย =TOTAL TOTAL =&amp;nbsp;FMAGA + FRATE &lt;br&gt;+ FPAO + FSUNSS + FFOY + FLUMYAI&amp;nbsp;" style="shape=parallelogram;perimeter=parallelogramPerimeter;whiteSpace=wrap;html=1;fixedSize=1;fontFamily=Helvetica;fontSize=12;" parent="mvioNwK95yMqdUQ73LqQ-36" vertex="1">
                    <mxGeometry x="177.5" y="4930" width="335" height="110" as="geometry"/>
                </mxCell>
                <mxCell id="206" value="FLUMYAI=0" style="whiteSpace=wrap;html=1;fontFamily=Helvetica;fontSize=12;" parent="mvioNwK95yMqdUQ73LqQ-36" vertex="1">
                    <mxGeometry x="77.5" y="4500" width="100" height="40" as="geometry"/>
                </mxCell>
                <mxCell id="209" value="FFOY=0" style="whiteSpace=wrap;html=1;fontFamily=Helvetica;fontSize=12;" parent="mvioNwK95yMqdUQ73LqQ-36" vertex="1">
                    <mxGeometry x="67.5" y="3800" width="100" height="40" as="geometry"/>
                </mxCell>
                <mxCell id="211" value="FSUNSS=0" style="whiteSpace=wrap;html=1;fontFamily=Helvetica;fontSize=12;" parent="mvioNwK95yMqdUQ73LqQ-36" vertex="1">
                    <mxGeometry x="57.5" y="3110" width="100" height="40" as="geometry"/>
                </mxCell>
                <mxCell id="214" value="FPAO=0" style="whiteSpace=wrap;html=1;fontFamily=Helvetica;fontSize=12;" parent="mvioNwK95yMqdUQ73LqQ-36" vertex="1">
                    <mxGeometry x="47.5" y="2410" width="100" height="40" as="geometry"/>
                </mxCell>
                <mxCell id="216" value="FRATE=0" style="whiteSpace=wrap;html=1;fontFamily=Helvetica;fontSize=12;" parent="mvioNwK95yMqdUQ73LqQ-36" vertex="1">
                    <mxGeometry x="37.5" y="1700" width="100" height="40" as="geometry"/>
                </mxCell>
                <mxCell id="218" value="FMAGA=0" style="whiteSpace=wrap;html=1;fontFamily=Helvetica;fontSize=12;" parent="mvioNwK95yMqdUQ73LqQ-36" vertex="1">
                    <mxGeometry x="30" y="1000" width="100" height="40" as="geometry"/>
                </mxCell>
                <mxCell id="222" value="กรุณาใส่เงิน" style="shape=parallelogram;perimeter=parallelogramPerimeter;whiteSpace=wrap;html=1;fixedSize=1;" parent="mvioNwK95yMqdUQ73LqQ-36" vertex="1">
                    <mxGeometry x="285" y="5080" width="120" height="60" as="geometry"/>
                </mxCell>
                <mxCell id="224" value="เงินที่ลูกค้าใส่มา&lt;br&gt;ทั้งหมด = ALL" style="whiteSpace=wrap;html=1;" parent="mvioNwK95yMqdUQ73LqQ-36" vertex="1">
                    <mxGeometry x="285" y="5190" width="120" height="60" as="geometry"/>
                </mxCell>
                <mxCell id="225" value="" style="edgeStyle=none;html=1;" parent="mvioNwK95yMqdUQ73LqQ-36" source="222" target="224" edge="1">
                    <mxGeometry relative="1" as="geometry"/>
                </mxCell>
                <mxCell id="226" value="ALL &amp;gt;= TOTAL" style="rhombus;whiteSpace=wrap;html=1;" parent="mvioNwK95yMqdUQ73LqQ-36" vertex="1">
                    <mxGeometry x="155" y="5300" width="95" height="100" as="geometry"/>
                </mxCell>
                <mxCell id="229" value="F" style="text;html=1;align=center;verticalAlign=middle;resizable=0;points=[];autosize=1;strokeColor=none;fillColor=none;" parent="mvioNwK95yMqdUQ73LqQ-36" vertex="1">
                    <mxGeometry x="82.5" y="5320" width="30" height="30" as="geometry"/>
                </mxCell>
                <mxCell id="230" value="T" style="text;html=1;align=center;verticalAlign=middle;resizable=0;points=[];autosize=1;strokeColor=none;fillColor=none;" parent="mvioNwK95yMqdUQ73LqQ-36" vertex="1">
                    <mxGeometry x="330" y="5320" width="30" height="30" as="geometry"/>
                </mxCell>
                <mxCell id="232" value="" style="edgeStyle=segmentEdgeStyle;endArrow=classic;html=1;curved=0;rounded=0;endSize=8;startSize=8;sourcePerimeterSpacing=0;targetPerimeterSpacing=0;" parent="mvioNwK95yMqdUQ73LqQ-36" source="224" target="226" edge="1">
                    <mxGeometry width="100" relative="1" as="geometry">
                        <mxPoint x="367.5" y="5280" as="sourcePoint"/>
                        <mxPoint x="297.5" y="5320" as="targetPoint"/>
                        <Array as="points">
                            <mxPoint x="338" y="5280"/>
                            <mxPoint x="203" y="5280"/>
                        </Array>
                    </mxGeometry>
                </mxCell>
                <mxCell id="228" value="" style="edgeStyle=segmentEdgeStyle;endArrow=classic;html=1;curved=0;rounded=0;endSize=8;startSize=8;sourcePerimeterSpacing=0;targetPerimeterSpacing=0;" parent="mvioNwK95yMqdUQ73LqQ-36" source="226" edge="1">
                    <mxGeometry width="100" relative="1" as="geometry">
                        <mxPoint x="307.5" y="5370" as="sourcePoint"/>
                        <mxPoint x="470.5" y="5510" as="targetPoint"/>
                        <Array as="points">
                            <mxPoint x="470" y="5350"/>
                            <mxPoint x="470" y="5492"/>
                        </Array>
                    </mxGeometry>
                </mxCell>
                <mxCell id="234" value="&lt;div&gt;ALL/500=FH&lt;/div&gt;&lt;div&gt;FH X 500-ALL=TFH&lt;/div&gt;" style="rounded=0;whiteSpace=wrap;html=1;" parent="mvioNwK95yMqdUQ73LqQ-36" vertex="1">
                    <mxGeometry x="157.5" y="5580" width="120" height="60" as="geometry"/>
                </mxCell>
                <mxCell id="235" value="ALL&amp;gt;=500" style="rhombus;whiteSpace=wrap;html=1;" parent="mvioNwK95yMqdUQ73LqQ-36" vertex="1">
                    <mxGeometry x="430" y="5510" width="80" height="80" as="geometry"/>
                </mxCell>
                <mxCell id="236" value="" style="edgeStyle=segmentEdgeStyle;endArrow=classic;html=1;curved=0;rounded=0;endSize=8;startSize=8;sourcePerimeterSpacing=0;targetPerimeterSpacing=0;exitX=0.016;exitY=0.492;exitDx=0;exitDy=0;exitPerimeter=0;" parent="mvioNwK95yMqdUQ73LqQ-36" source="235" edge="1">
                    <mxGeometry width="100" relative="1" as="geometry">
                        <mxPoint x="310" y="5510" as="sourcePoint"/>
                        <mxPoint x="210" y="5580" as="targetPoint"/>
                        <Array as="points">
                            <mxPoint x="290" y="5549"/>
                            <mxPoint x="210" y="5550"/>
                        </Array>
                    </mxGeometry>
                </mxCell>
                <mxCell id="237" value="T" style="text;html=1;align=center;verticalAlign=middle;resizable=0;points=[];autosize=1;strokeColor=none;fillColor=none;" parent="mvioNwK95yMqdUQ73LqQ-36" vertex="1">
                    <mxGeometry x="300" y="5510" width="30" height="30" as="geometry"/>
                </mxCell>
                <mxCell id="238" value="" style="edgeStyle=segmentEdgeStyle;endArrow=classic;html=1;curved=0;rounded=0;endSize=8;startSize=8;sourcePerimeterSpacing=0;targetPerimeterSpacing=0;" parent="mvioNwK95yMqdUQ73LqQ-36" edge="1">
                    <mxGeometry width="100" relative="1" as="geometry">
                        <mxPoint x="512.5" y="5550" as="sourcePoint"/>
                        <mxPoint x="563.5" y="5710" as="targetPoint"/>
                        <Array as="points">
                            <mxPoint x="563" y="5550"/>
                            <mxPoint x="563" y="5580"/>
                            <mxPoint x="564" y="5580"/>
                            <mxPoint x="564" y="5590"/>
                        </Array>
                    </mxGeometry>
                </mxCell>
                <mxCell id="239" value="F" style="text;html=1;align=center;verticalAlign=middle;resizable=0;points=[];autosize=1;strokeColor=none;fillColor=none;" parent="mvioNwK95yMqdUQ73LqQ-36" vertex="1">
                    <mxGeometry x="523.75" y="5610" width="30" height="30" as="geometry"/>
                </mxCell>
                <mxCell id="240" value="FH=0" style="whiteSpace=wrap;html=1;" parent="mvioNwK95yMqdUQ73LqQ-36" vertex="1">
                    <mxGeometry x="512.5" y="5710" width="100" height="40" as="geometry"/>
                </mxCell>
                <mxCell id="241" value="TFH&amp;gt;=100" style="rhombus;whiteSpace=wrap;html=1;" parent="mvioNwK95yMqdUQ73LqQ-36" vertex="1">
                    <mxGeometry x="330" y="5810" width="80" height="80" as="geometry"/>
                </mxCell>
                <mxCell id="265" value="T" style="text;html=1;align=center;verticalAlign=middle;resizable=0;points=[];autosize=1;strokeColor=none;fillColor=none;" parent="mvioNwK95yMqdUQ73LqQ-36" vertex="1">
                    <mxGeometry x="247.5" y="5819" width="30" height="30" as="geometry"/>
                </mxCell>
                <mxCell id="266" value="" style="edgeStyle=segmentEdgeStyle;endArrow=classic;html=1;curved=0;rounded=0;endSize=8;startSize=8;sourcePerimeterSpacing=0;targetPerimeterSpacing=0;exitX=0.978;exitY=0.507;exitDx=0;exitDy=0;exitPerimeter=0;" parent="mvioNwK95yMqdUQ73LqQ-36" source="241" edge="1">
                    <mxGeometry width="100" relative="1" as="geometry">
                        <mxPoint x="420" y="5849" as="sourcePoint"/>
                        <mxPoint x="570" y="6049" as="targetPoint"/>
                        <Array as="points">
                            <mxPoint x="570" y="5851"/>
                        </Array>
                    </mxGeometry>
                </mxCell>
                <mxCell id="267" value="F" style="text;html=1;align=center;verticalAlign=middle;resizable=0;points=[];autosize=1;strokeColor=none;fillColor=none;" parent="mvioNwK95yMqdUQ73LqQ-36" vertex="1">
                    <mxGeometry x="471.25" y="5819" width="30" height="30" as="geometry"/>
                </mxCell>
                <mxCell id="269" value="&lt;div&gt;TFH/100=OH&lt;/div&gt;&lt;div&gt;OH X 100-TFH=TOH&lt;/div&gt;" style="rounded=0;whiteSpace=wrap;html=1;" parent="mvioNwK95yMqdUQ73LqQ-36" vertex="1">
                    <mxGeometry x="190" y="5999" width="120" height="60" as="geometry"/>
                </mxCell>
                <mxCell id="270" value="OH=0" style="whiteSpace=wrap;html=1;" parent="mvioNwK95yMqdUQ73LqQ-36" vertex="1">
                    <mxGeometry x="523.75" y="6049" width="100" height="40" as="geometry"/>
                </mxCell>
                <mxCell id="271" value="TOH&amp;lt;=50" style="rhombus;whiteSpace=wrap;html=1;" parent="mvioNwK95yMqdUQ73LqQ-36" vertex="1">
                    <mxGeometry x="337.5" y="6149" width="80" height="80" as="geometry"/>
                </mxCell>
                <mxCell id="272" value="" style="edgeStyle=segmentEdgeStyle;endArrow=classic;html=1;curved=0;rounded=0;endSize=8;startSize=8;sourcePerimeterSpacing=0;targetPerimeterSpacing=0;" parent="mvioNwK95yMqdUQ73LqQ-36" target="271" edge="1">
                    <mxGeometry width="100" relative="1" as="geometry">
                        <mxPoint x="577.5" y="6089" as="sourcePoint"/>
                        <mxPoint x="498" y="6149" as="targetPoint"/>
                        <Array as="points">
                            <mxPoint x="578" y="6109"/>
                            <mxPoint x="380" y="6109"/>
                            <mxPoint x="380" y="6149"/>
                            <mxPoint x="378" y="6149"/>
                        </Array>
                    </mxGeometry>
                </mxCell>
                <mxCell id="275" value="" style="shape=waypoint;sketch=0;size=6;pointerEvents=1;points=[];fillColor=none;resizable=0;rotatable=0;perimeter=centerPerimeter;snapToPoint=1;" parent="mvioNwK95yMqdUQ73LqQ-36" vertex="1">
                    <mxGeometry x="370" y="6099" width="20" height="20" as="geometry"/>
                </mxCell>
                <mxCell id="277" value="&lt;div&gt;TOH/50=FT&lt;/div&gt;&lt;div&gt;FT X 50-TOH=TFT&lt;/div&gt;" style="rounded=0;whiteSpace=wrap;html=1;" parent="mvioNwK95yMqdUQ73LqQ-36" vertex="1">
                    <mxGeometry x="215" y="6260" width="120" height="60" as="geometry"/>
                </mxCell>
                <mxCell id="278" value="FT=0" style="whiteSpace=wrap;html=1;" parent="mvioNwK95yMqdUQ73LqQ-36" vertex="1">
                    <mxGeometry x="501.25" y="6260" width="100" height="40" as="geometry"/>
                </mxCell>
                <mxCell id="279" value="" style="edgeStyle=segmentEdgeStyle;endArrow=classic;html=1;curved=0;rounded=0;endSize=8;startSize=8;sourcePerimeterSpacing=0;targetPerimeterSpacing=0;" parent="mvioNwK95yMqdUQ73LqQ-36" target="277" edge="1">
                    <mxGeometry width="100" relative="1" as="geometry">
                        <mxPoint x="337.5" y="6190" as="sourcePoint"/>
                        <mxPoint x="327.5" y="6230" as="targetPoint"/>
                        <Array as="points">
                            <mxPoint x="278" y="6190"/>
                        </Array>
                    </mxGeometry>
                </mxCell>
                <mxCell id="280" value="T" style="text;html=1;align=center;verticalAlign=middle;resizable=0;points=[];autosize=1;strokeColor=none;fillColor=none;" parent="mvioNwK95yMqdUQ73LqQ-36" vertex="1">
                    <mxGeometry x="225" y="6175" width="30" height="30" as="geometry"/>
                </mxCell>
                <mxCell id="281" value="" style="edgeStyle=segmentEdgeStyle;endArrow=classic;html=1;curved=0;rounded=0;endSize=8;startSize=8;sourcePerimeterSpacing=0;targetPerimeterSpacing=0;entryX=0.47;entryY=0.039;entryDx=0;entryDy=0;entryPerimeter=0;" parent="mvioNwK95yMqdUQ73LqQ-36" target="278" edge="1">
                    <mxGeometry width="100" relative="1" as="geometry">
                        <mxPoint x="420" y="6190" as="sourcePoint"/>
                        <mxPoint x="520" y="6230" as="targetPoint"/>
                        <Array as="points">
                            <mxPoint x="550" y="6190"/>
                            <mxPoint x="550" y="6230"/>
                            <mxPoint x="548" y="6230"/>
                        </Array>
                    </mxGeometry>
                </mxCell>
                <mxCell id="282" value="F" style="text;html=1;align=center;verticalAlign=middle;resizable=0;points=[];autosize=1;strokeColor=none;fillColor=none;" parent="mvioNwK95yMqdUQ73LqQ-36" vertex="1">
                    <mxGeometry x="470" y="6200" width="30" height="30" as="geometry"/>
                </mxCell>
                <mxCell id="286" value="TFT&amp;gt;=20" style="rhombus;whiteSpace=wrap;html=1;" parent="mvioNwK95yMqdUQ73LqQ-36" vertex="1">
                    <mxGeometry x="385" y="6420" width="80" height="80" as="geometry"/>
                </mxCell>
                <mxCell id="290" value="" style="shape=waypoint;sketch=0;size=6;pointerEvents=1;points=[];fillColor=none;resizable=0;rotatable=0;perimeter=centerPerimeter;snapToPoint=1;" parent="mvioNwK95yMqdUQ73LqQ-36" vertex="1">
                    <mxGeometry x="405" y="6380" width="20" height="20" as="geometry"/>
                </mxCell>
                <mxCell id="291" value="" style="endArrow=classic;html=1;entryX=0.526;entryY=0.02;entryDx=0;entryDy=0;entryPerimeter=0;exitX=0.467;exitY=0.828;exitDx=0;exitDy=0;exitPerimeter=0;" parent="mvioNwK95yMqdUQ73LqQ-36" source="290" target="286" edge="1">
                    <mxGeometry width="50" height="50" relative="1" as="geometry">
                        <mxPoint x="340" y="6410" as="sourcePoint"/>
                        <mxPoint x="390" y="6360" as="targetPoint"/>
                    </mxGeometry>
                </mxCell>
                <mxCell id="303" value="TTT&amp;gt;=10" style="rhombus;whiteSpace=wrap;html=1;" parent="mvioNwK95yMqdUQ73LqQ-36" vertex="1">
                    <mxGeometry x="391.25" y="6689" width="80" height="80" as="geometry"/>
                </mxCell>
                <mxCell id="313" value="TB=0" style="whiteSpace=wrap;html=1;" parent="mvioNwK95yMqdUQ73LqQ-36" vertex="1">
                    <mxGeometry x="540" y="6799" width="100" height="40" as="geometry"/>
                </mxCell>
                <mxCell id="315" value="T" style="text;html=1;align=center;verticalAlign=middle;resizable=0;points=[];autosize=1;strokeColor=none;fillColor=none;" parent="mvioNwK95yMqdUQ73LqQ-36" vertex="1">
                    <mxGeometry x="290" y="6739" width="30" height="30" as="geometry"/>
                </mxCell>
                <mxCell id="351" value="TFB&amp;gt;=1" style="rhombus;whiteSpace=wrap;html=1;" parent="mvioNwK95yMqdUQ73LqQ-36" vertex="1">
                    <mxGeometry x="310" y="7299" width="80" height="80" as="geometry"/>
                </mxCell>
                <mxCell id="353" value="เงินของคุณไม่พอกรุณา&lt;br&gt;ทำรายการใหม่" style="shape=parallelogram;perimeter=parallelogramPerimeter;whiteSpace=wrap;html=1;fixedSize=1;" parent="mvioNwK95yMqdUQ73LqQ-36" vertex="1">
                    <mxGeometry x="17.5" y="5429" width="160" height="71" as="geometry"/>
                </mxCell>
                <mxCell id="227" value="" style="endArrow=none;html=1;entryX=0.008;entryY=0.505;entryDx=0;entryDy=0;entryPerimeter=0;" parent="mvioNwK95yMqdUQ73LqQ-36" target="226" edge="1">
                    <mxGeometry width="50" height="50" relative="1" as="geometry">
                        <mxPoint x="80" y="5351" as="sourcePoint"/>
                        <mxPoint x="110" y="5389" as="targetPoint"/>
                        <Array as="points"/>
                    </mxGeometry>
                </mxCell>
                <mxCell id="354" value="" style="endArrow=classic;html=1;exitX=0.098;exitY=1.073;exitDx=0;exitDy=0;exitPerimeter=0;" parent="mvioNwK95yMqdUQ73LqQ-36" source="229" edge="1">
                    <mxGeometry width="50" height="50" relative="1" as="geometry">
                        <mxPoint x="220" y="5489" as="sourcePoint"/>
                        <mxPoint x="85" y="5430" as="targetPoint"/>
                    </mxGeometry>
                </mxCell>
                <mxCell id="355" value="คืนเงินที่ใส่มาให้ลูกค้า" style="shape=parallelogram;perimeter=parallelogramPerimeter;whiteSpace=wrap;html=1;fixedSize=1;" parent="mvioNwK95yMqdUQ73LqQ-36" vertex="1">
                    <mxGeometry x="30" y="5779" width="152.5" height="81" as="geometry"/>
                </mxCell>
                <mxCell id="356" value="" style="endArrow=classic;html=1;exitX=0.457;exitY=0.999;exitDx=0;exitDy=0;exitPerimeter=0;entryX=0.398;entryY=0;entryDx=0;entryDy=0;entryPerimeter=0;" parent="mvioNwK95yMqdUQ73LqQ-36" source="353" target="355" edge="1">
                    <mxGeometry width="50" height="50" relative="1" as="geometry">
                        <mxPoint x="300" y="5569" as="sourcePoint"/>
                        <mxPoint x="350" y="5519" as="targetPoint"/>
                    </mxGeometry>
                </mxCell>
                <mxCell id="345" value="F" style="text;html=1;align=center;verticalAlign=middle;resizable=0;points=[];autosize=1;strokeColor=none;fillColor=none;" parent="mvioNwK95yMqdUQ73LqQ-36" vertex="1">
                    <mxGeometry x="482.5" y="7339" width="30" height="30" as="geometry"/>
                </mxCell>
                <mxCell id="194" value="ปุ่มตกลง" style="shape=parallelogram;perimeter=parallelogramPerimeter;whiteSpace=wrap;html=1;fixedSize=1;" parent="mvioNwK95yMqdUQ73LqQ-36" vertex="1">
                    <mxGeometry x="255" y="4699" width="170" height="80" as="geometry"/>
                </mxCell>
                <mxCell id="361" value="" style="edgeStyle=none;html=1;" parent="mvioNwK95yMqdUQ73LqQ-36" source="358" target="359" edge="1">
                    <mxGeometry relative="1" as="geometry"/>
                </mxCell>
                <mxCell id="358" value="&lt;b&gt;&lt;i&gt;&lt;u&gt;จำนวณสินค้าที่ลูกค้าจะได้รับ&lt;br&gt;&lt;/u&gt;&lt;/i&gt;&lt;/b&gt;จำนวนกาแฟอเมริกาโน่ที่ออกไป=FMAGA/35&lt;br&gt;จำวนวนลาเต้เย็นที่ออกไป=FRATE/25&lt;br&gt;จำนวนนำเปล่าที่ออกไป=FPAO/10&lt;br&gt;จำนวนขนมชั้นที่่ออกไป=FSUNSS/5&lt;br&gt;จำนวนฝอยทองทีออกไป=FFOY/20&lt;br&gt;จำนวนลำไยอบแห้งที่ออกไป=FLUMYAI/50" style="shape=parallelogram;perimeter=parallelogramPerimeter;whiteSpace=wrap;html=1;fixedSize=1;" parent="mvioNwK95yMqdUQ73LqQ-36" vertex="1">
                    <mxGeometry x="225" y="7609" width="305" height="121" as="geometry"/>
                </mxCell>
                <mxCell id="363" value="" style="edgeStyle=none;html=1;" parent="mvioNwK95yMqdUQ73LqQ-36" source="359" target="362" edge="1">
                    <mxGeometry relative="1" as="geometry"/>
                </mxCell>
                <mxCell id="359" value="&lt;div&gt;&lt;b&gt;&lt;i&gt;&lt;u&gt;ประเภทเงินทอนและจำนวนที่ทอนไป&lt;/u&gt;&lt;/i&gt;&lt;/b&gt;&lt;/div&gt;&lt;div&gt;จำนวนใบห้าร้อยที่ทอนไป=FH&lt;/div&gt;&lt;div&gt;จำนวนใบร้อยที่ทอนไป=OH&lt;/div&gt;&lt;div&gt;จำนวนใบห้าสิบที่ทอนไป=FT&lt;/div&gt;&lt;div&gt;จำนวนใบยี่สิบที่ทอนไป=TT&lt;/div&gt;&lt;div&gt;จำนวนเหรียญสิบที่ทอนไป=TB&lt;/div&gt;&lt;div&gt;จำนวนเหรียญห้าที่ทอนไป=FB&lt;/div&gt;&lt;div&gt;จำนวนเหรียญบาทที่ทอนไป=OB&lt;/div&gt;" style="shape=parallelogram;perimeter=parallelogramPerimeter;whiteSpace=wrap;html=1;fixedSize=1;" parent="mvioNwK95yMqdUQ73LqQ-36" vertex="1">
                    <mxGeometry x="225" y="7769" width="315" height="151" as="geometry"/>
                </mxCell>
                <mxCell id="367" value="" style="edgeStyle=none;html=1;" parent="mvioNwK95yMqdUQ73LqQ-36" source="362" target="364" edge="1">
                    <mxGeometry relative="1" as="geometry"/>
                </mxCell>
                <mxCell id="362" value="&lt;b&gt;&lt;i&gt;&lt;u&gt;สินค้าแต่ละประเภทที่เหลืออยู่&lt;br&gt;&lt;/u&gt;&lt;/i&gt;&lt;/b&gt;จำนวนกาแฟอเมริกาโน่ที่ออกไป=FMAGA/35&lt;br&gt;จำวนวนลาเต้เย็นที่ออกไป=FRATE/25&lt;br&gt;จำนวนนำเปล่าที่ออกไป=FPAO/10&lt;br&gt;จำนวนขนมชั้นที่่ออกไป=FSUNSS/5&lt;br&gt;จำนวนฝอยทองทีออกไป=FFOY/20&lt;br&gt;จำนวนลำไยอบแห้งที่ออกไป=FLUMYAI/50" style="shape=parallelogram;perimeter=parallelogramPerimeter;whiteSpace=wrap;html=1;fixedSize=1;" parent="mvioNwK95yMqdUQ73LqQ-36" vertex="1">
                    <mxGeometry x="213.75" y="7949" width="310" height="181" as="geometry"/>
                </mxCell>
                <mxCell id="366" value="" style="edgeStyle=none;html=1;" parent="mvioNwK95yMqdUQ73LqQ-36" source="364" target="365" edge="1">
                    <mxGeometry relative="1" as="geometry"/>
                </mxCell>
                <mxCell id="364" value="&lt;b&gt;&lt;i&gt;&lt;u&gt;จำนวนใบและเหรียญแต่ละประเภทที่เหลืออยู่&lt;br&gt;&lt;/u&gt;&lt;/i&gt;&lt;/b&gt;&lt;div&gt;จำนวนใบห้าร้อยที่เหลือ=MANYFH-FH&lt;/div&gt;&lt;div&gt;จำนวนใบร้อยที่เหลือ=MANYOH-OH&lt;/div&gt;&lt;div&gt;จำนวนใบห้าสิบที่เหลือ=MANYFT-FT&lt;/div&gt;&lt;div&gt;จำนวนใบยี่สิบที่เหลือ=MANYTT-TT&lt;/div&gt;&lt;div&gt;จำนวนเหรียญสิบที่เหลือ=MANYTB-TB&lt;/div&gt;&lt;div&gt;จำนวนเหรียญห้าบาทที่เหลือ=MANYFB-FB&lt;/div&gt;&lt;div&gt;จำนวนเหรียญบาทที่เหลือ=MANYOB-OB&lt;/div&gt;" style="shape=parallelogram;perimeter=parallelogramPerimeter;whiteSpace=wrap;html=1;fixedSize=1;" parent="mvioNwK95yMqdUQ73LqQ-36" vertex="1">
                    <mxGeometry x="210" y="8169" width="310" height="181" as="geometry"/>
                </mxCell>
                <mxCell id="365" value="&lt;i style=&quot;&quot;&gt;&lt;b style=&quot;text-decoration-line: underline;&quot;&gt;จำนวนกำไร &lt;br&gt;=&amp;nbsp;&lt;/b&gt;5xFMAGA/35 + 6xFRATE/25 + 2xFPAO/10 + 3xFSUNSS/5 + 7FFOY/20 + 10XFLUMYAI/50&lt;br&gt;&lt;/i&gt;&lt;div&gt;&lt;br&gt;&lt;/div&gt;" style="shape=parallelogram;perimeter=parallelogramPerimeter;whiteSpace=wrap;html=1;fixedSize=1;" parent="mvioNwK95yMqdUQ73LqQ-36" vertex="1">
                    <mxGeometry x="202.5" y="8399" width="310" height="181" as="geometry"/>
                </mxCell>
                <mxCell id="368" value="สิ้นสุด" style="ellipse;whiteSpace=wrap;html=1;" parent="mvioNwK95yMqdUQ73LqQ-36" vertex="1">
                    <mxGeometry x="57.5" y="8709" width="105" height="51" as="geometry"/>
                </mxCell>
                <mxCell id="mvioNwK95yMqdUQ73LqQ-70" value="&lt;font data-font-src=&quot;https://fonts.googleapis.com/css?family=Sarabun&quot; face=&quot;Sarabun&quot;&gt;โจทย์ปัญหา&lt;/font&gt;" style="swimlane;whiteSpace=wrap;html=1;" parent="WIyWlLk6GJQsqaUBKTNV-1" vertex="1">
                    <mxGeometry x="-720" y="320" width="645" height="310" as="geometry"/>
                </mxCell>
                <mxCell id="mvioNwK95yMqdUQ73LqQ-71" value="&lt;p style=&quot;line-height: 120%;&quot;&gt;&lt;font data-font-src=&quot;https://fonts.googleapis.com/css?family=Sarabun&quot; face=&quot;Sarabun&quot; style=&quot;font-size: 14px;&quot;&gt;&lt;b&gt;&lt;u&gt;โจทย์&lt;/u&gt;&lt;/b&gt; จงเขียน Flowchart เพื่อแสดงขั้นตอนการทำงาน ของเครื่องขายน้ำอัตโนมัติ โดยเครื่องมีการทำงานดังนี้&lt;br&gt;&amp;nbsp; &amp;nbsp; - เครื่องมีสินค้าประเภท &quot;เครื่องดื่ม&quot; อยู่ 3 อย่างคือ กาแฟอเมริกาโน่ร้อน , ลาเต้เย็น , น้ำเปล่า&lt;br&gt;&amp;nbsp; &amp;nbsp; - เครื่องมีสินค้าประเภท &quot;ขนม&quot; อยู่ 3 อย่างคือ ขนมชั้น, ฝอยทอง, ลำไยอบแห้ง&lt;br&gt;&amp;nbsp; &amp;nbsp; - เครื่องสามารถทอนเงินลูกค้าได้ทั้ง เหรียญ และ ธนบัตร (โดยจะต้องเลือกทอนเงินด้วยธนบัตรใหญ่ก่อน)&lt;br&gt;&lt;/font&gt;&lt;span style=&quot;font-family: Sarabun; background-color: initial;&quot;&gt;&amp;nbsp; &amp;nbsp; &amp;nbsp; &amp;nbsp;กรณีที่มีเงินทอนไม่พอ ให้แจ้งลูกค้าก่อนซื้อสินค้าว่า &quot;เครื่องไม่มีเงิน&quot;&lt;br&gt;&amp;nbsp; &amp;nbsp; -&amp;nbsp; เครื่องสามารถแสดงจำนวนสินค้าคงเหลือ ราคาสินค้า จำนวนสินค้าที่ลูกค้าสั่ง และรวมราคาที่ลูกค้าต้องจ่าย&lt;br&gt;&lt;/span&gt;&lt;span style=&quot;font-family: Sarabun; background-color: initial;&quot;&gt;&lt;b&gt;&lt;u&gt;เหตุการณ์&lt;/u&gt;&lt;/b&gt;&lt;br&gt;&amp;nbsp; &amp;nbsp; &lt;b&gt;ลูกค้า&lt;/b&gt;สามารถเลือกสินค้ากี่ชิ้นก็ได้ จนกว่าลูกค้าจะพอใจ เมื่อพอใจแล้ว สามารถกดปุ่ม &quot;ตกลง&quot; เพื่อคำนวณ&lt;br&gt;ยอดเงินทั้งหมดที่ลูกค้าต้องชำระ และลูกค้าต้องใส่เงินไปตามจำนวน(หรือมากกว่า) เพื่อทำการชำระสินค้า&lt;br&gt;และตู้ก็จะทอนเงินให้ลูกค้า พร้อมส่งสินค้าให้ลูกค้า&lt;br&gt;&amp;nbsp; &amp;nbsp; &lt;b&gt;แอ็ดมิน&lt;/b&gt;สามารถได้รับการแจ้งเตือนทุกครั้งที่มีลูกค้ากดซื้อสินค้าหน้าตู้ โดยจะมีข้อมูลสรุปกำไรทั้งหมด จำนวน&lt;br&gt;เงินทอนคงเหลือ(ว่าเหลือแต่ละเหรียญและธนบัตรอยู่ทั้งหมดอย่างละเท่าไหร่)&lt;/span&gt;&lt;/p&gt;" style="text;html=1;align=left;verticalAlign=top;resizable=0;points=[];autosize=1;strokeColor=none;fillColor=none;fontSize=14;" parent="mvioNwK95yMqdUQ73LqQ-70" vertex="1">
                    <mxGeometry x="15" y="20" width="630" height="260" as="geometry"/>
                </mxCell>
                <mxCell id="46" value="" style="endArrow=none;html=1;exitX=0;exitY=0.5;exitDx=0;exitDy=0;" parent="WIyWlLk6GJQsqaUBKTNV-1" source="27" edge="1">
                    <mxGeometry width="50" height="50" relative="1" as="geometry">
                        <mxPoint x="-510" y="1660" as="sourcePoint"/>
                        <mxPoint x="-640" y="1560" as="targetPoint"/>
                    </mxGeometry>
                </mxCell>
                <mxCell id="47" value="" style="endArrow=none;html=1;" parent="WIyWlLk6GJQsqaUBKTNV-1" edge="1">
                    <mxGeometry width="50" height="50" relative="1" as="geometry">
                        <mxPoint x="-640" y="1680" as="sourcePoint"/>
                        <mxPoint x="-640" y="1560" as="targetPoint"/>
                    </mxGeometry>
                </mxCell>
                <mxCell id="48" value="" style="endArrow=none;html=1;" parent="WIyWlLk6GJQsqaUBKTNV-1" edge="1">
                    <mxGeometry width="50" height="50" relative="1" as="geometry">
                        <mxPoint x="-640" y="1760" as="sourcePoint"/>
                        <mxPoint x="-420" y="1760" as="targetPoint"/>
                    </mxGeometry>
                </mxCell>
                <mxCell id="51" value="" style="endArrow=none;html=1;entryX=0.344;entryY=0.388;entryDx=0;entryDy=0;entryPerimeter=0;" parent="WIyWlLk6GJQsqaUBKTNV-1" target="49" edge="1">
                    <mxGeometry width="50" height="50" relative="1" as="geometry">
                        <mxPoint x="-420" y="1760" as="sourcePoint"/>
                        <mxPoint x="-460" y="1690" as="targetPoint"/>
                    </mxGeometry>
                </mxCell>
                <mxCell id="106" value="" style="edgeStyle=none;html=1;" parent="WIyWlLk6GJQsqaUBKTNV-1" source="107" target="109" edge="1">
                    <mxGeometry relative="1" as="geometry"/>
                </mxCell>
                <mxCell id="107" value="คุณต้องการราเต้&lt;br&gt;เย็นหรือไม่" style="shape=parallelogram;perimeter=parallelogramPerimeter;whiteSpace=wrap;html=1;fixedSize=1;" parent="WIyWlLk6GJQsqaUBKTNV-1" vertex="1">
                    <mxGeometry x="-447.5" y="2007" width="120" height="60" as="geometry"/>
                </mxCell>
                <mxCell id="108" value="ลูกค้ากดปุ่มตกลง" style="rhombus;whiteSpace=wrap;html=1;" parent="WIyWlLk6GJQsqaUBKTNV-1" vertex="1">
                    <mxGeometry x="-577.5" y="2227" width="80" height="80" as="geometry"/>
                </mxCell>
                <mxCell id="109" value="ปุ่มไม่ต้องการ,ปุ่มตกลง" style="shape=parallelogram;perimeter=parallelogramPerimeter;whiteSpace=wrap;html=1;fixedSize=1;" parent="WIyWlLk6GJQsqaUBKTNV-1" vertex="1">
                    <mxGeometry x="-457.5" y="2097" width="140" height="70" as="geometry"/>
                </mxCell>
                <mxCell id="110" value="" style="edgeStyle=orthogonalEdgeStyle;html=1;" parent="WIyWlLk6GJQsqaUBKTNV-1" source="111" target="115" edge="1">
                    <mxGeometry relative="1" as="geometry"/>
                </mxCell>
                <mxCell id="111" value="กรุณากดจำนวนที่ต้องการ" style="shape=parallelogram;perimeter=parallelogramPerimeter;whiteSpace=wrap;html=1;fixedSize=1;" parent="WIyWlLk6GJQsqaUBKTNV-1" vertex="1">
                    <mxGeometry x="-250" y="2357" width="120" height="60" as="geometry"/>
                </mxCell>
                <mxCell id="112" value="" style="edgeStyle=segmentEdgeStyle;endArrow=classic;html=1;curved=0;rounded=0;endSize=8;startSize=8;sourcePerimeterSpacing=0;targetPerimeterSpacing=0;entryX=0.5;entryY=0;entryDx=0;entryDy=0;exitX=1;exitY=0.5;exitDx=0;exitDy=0;" parent="WIyWlLk6GJQsqaUBKTNV-1" source="108" target="111" edge="1">
                    <mxGeometry width="100" relative="1" as="geometry">
                        <mxPoint x="337.5" y="1567" as="sourcePoint"/>
                        <mxPoint x="527.5" y="1637" as="targetPoint"/>
                        <Array as="points">
                            <mxPoint x="-190" y="2267"/>
                        </Array>
                    </mxGeometry>
                </mxCell>
                <mxCell id="113" value="&lt;span style=&quot;font-size: 36px;&quot;&gt;T&lt;/span&gt;" style="edgeLabel;html=1;align=center;verticalAlign=middle;resizable=0;points=[];" parent="112" vertex="1" connectable="0">
                    <mxGeometry x="-0.4077" y="1" relative="1" as="geometry">
                        <mxPoint as="offset"/>
                    </mxGeometry>
                </mxCell>
                <mxCell id="114" value="" style="edgeStyle=segmentEdgeStyle;endArrow=classic;html=1;curved=0;rounded=0;endSize=8;startSize=8;sourcePerimeterSpacing=0;targetPerimeterSpacing=0;entryX=0.5;entryY=0;entryDx=0;entryDy=0;exitX=0.5;exitY=1;exitDx=0;exitDy=0;" parent="WIyWlLk6GJQsqaUBKTNV-1" source="109" target="108" edge="1">
                    <mxGeometry width="100" relative="1" as="geometry">
                        <mxPoint x="307.5" y="1507" as="sourcePoint"/>
                        <mxPoint x="407.5" y="1547" as="targetPoint"/>
                        <Array as="points">
                            <mxPoint x="-389.5" y="2167"/>
                            <mxPoint x="-389.5" y="2197"/>
                            <mxPoint x="-537.5" y="2197"/>
                        </Array>
                    </mxGeometry>
                </mxCell>
                <mxCell id="115" value="BxH=FRATE" style="whiteSpace=wrap;html=1;" parent="WIyWlLk6GJQsqaUBKTNV-1" vertex="1">
                    <mxGeometry x="-236.25" y="2461" width="92.5" height="36" as="geometry"/>
                </mxCell>
                <mxCell id="144" style="edgeStyle=orthogonalEdgeStyle;html=1;exitX=0.677;exitY=1.008;exitDx=0;exitDy=0;entryX=0.5;entryY=0;entryDx=0;entryDy=0;fontFamily=Comic Sans MS;fontSize=36;exitPerimeter=0;" parent="WIyWlLk6GJQsqaUBKTNV-1" source="116" target="127" edge="1">
                    <mxGeometry relative="1" as="geometry"/>
                </mxCell>
                <mxCell id="116" value="กรุณารอ3วินาทีเพื่อไปยัง&lt;br&gt;รายการถัดไป" style="shape=parallelogram;perimeter=parallelogramPerimeter;whiteSpace=wrap;html=1;fixedSize=1;" parent="WIyWlLk6GJQsqaUBKTNV-1" vertex="1">
                    <mxGeometry x="-492.5" y="2577" width="170" height="80" as="geometry"/>
                </mxCell>
                <mxCell id="117" value="" style="edgeStyle=segmentEdgeStyle;endArrow=classic;html=1;curved=0;rounded=0;endSize=8;startSize=8;sourcePerimeterSpacing=0;targetPerimeterSpacing=0;exitX=0.5;exitY=1;exitDx=0;exitDy=0;entryX=0.5;entryY=0;entryDx=0;entryDy=0;" parent="WIyWlLk6GJQsqaUBKTNV-1" source="115" target="116" edge="1">
                    <mxGeometry width="100" relative="1" as="geometry">
                        <mxPoint x="237.5" y="1787" as="sourcePoint"/>
                        <mxPoint x="227.5" y="1857" as="targetPoint"/>
                        <Array as="points">
                            <mxPoint x="-189.5" y="2527"/>
                            <mxPoint x="-407.5" y="2527"/>
                        </Array>
                    </mxGeometry>
                </mxCell>
                <mxCell id="118" value="" style="shape=waypoint;sketch=0;size=6;pointerEvents=1;points=[];fillColor=none;resizable=0;rotatable=0;perimeter=centerPerimeter;snapToPoint=1;" parent="WIyWlLk6GJQsqaUBKTNV-1" vertex="1">
                    <mxGeometry x="-417.5" y="2517" width="20" height="20" as="geometry"/>
                </mxCell>
                <mxCell id="119" value="&lt;span style=&quot;font-size: 36px;&quot;&gt;F&lt;/span&gt;" style="edgeLabel;html=1;align=center;verticalAlign=middle;resizable=0;points=[];" parent="WIyWlLk6GJQsqaUBKTNV-1" vertex="1" connectable="0">
                    <mxGeometry x="-630.0029411764702" y="2377" as="geometry">
                        <mxPoint x="-16" y="-20" as="offset"/>
                    </mxGeometry>
                </mxCell>
                <mxCell id="120" value="" style="endArrow=none;html=1;exitX=0;exitY=0.5;exitDx=0;exitDy=0;" parent="WIyWlLk6GJQsqaUBKTNV-1" source="108" edge="1">
                    <mxGeometry width="50" height="50" relative="1" as="geometry">
                        <mxPoint x="-500" y="2367" as="sourcePoint"/>
                        <mxPoint x="-630" y="2267" as="targetPoint"/>
                    </mxGeometry>
                </mxCell>
                <mxCell id="121" value="" style="endArrow=none;html=1;" parent="WIyWlLk6GJQsqaUBKTNV-1" edge="1">
                    <mxGeometry width="50" height="50" relative="1" as="geometry">
                        <mxPoint x="-630" y="2380" as="sourcePoint"/>
                        <mxPoint x="-630" y="2267" as="targetPoint"/>
                    </mxGeometry>
                </mxCell>
                <mxCell id="122" value="" style="endArrow=none;html=1;" parent="WIyWlLk6GJQsqaUBKTNV-1" edge="1">
                    <mxGeometry width="50" height="50" relative="1" as="geometry">
                        <mxPoint x="-630" y="2467" as="sourcePoint"/>
                        <mxPoint x="-410" y="2467" as="targetPoint"/>
                    </mxGeometry>
                </mxCell>
                <mxCell id="123" value="" style="endArrow=none;html=1;entryX=0.344;entryY=0.388;entryDx=0;entryDy=0;entryPerimeter=0;" parent="WIyWlLk6GJQsqaUBKTNV-1" target="118" edge="1">
                    <mxGeometry width="50" height="50" relative="1" as="geometry">
                        <mxPoint x="-410" y="2467" as="sourcePoint"/>
                        <mxPoint x="-450" y="2397" as="targetPoint"/>
                    </mxGeometry>
                </mxCell>
                <mxCell id="124" value="" style="edgeStyle=orthogonalEdgeStyle;html=1;fontFamily=Comic Sans MS;fontSize=36;exitX=0.676;exitY=1;exitDx=0;exitDy=0;exitPerimeter=0;" parent="WIyWlLk6GJQsqaUBKTNV-1" source="39" target="107" edge="1">
                    <mxGeometry relative="1" as="geometry"/>
                </mxCell>
                <mxCell id="126" value="" style="edgeStyle=none;html=1;" parent="WIyWlLk6GJQsqaUBKTNV-1" source="127" target="129" edge="1">
                    <mxGeometry relative="1" as="geometry"/>
                </mxCell>
                <mxCell id="127" value="คุณต้องการน้ำ&lt;br&gt;เปล่าหรือไม่" style="shape=parallelogram;perimeter=parallelogramPerimeter;whiteSpace=wrap;html=1;fixedSize=1;" parent="WIyWlLk6GJQsqaUBKTNV-1" vertex="1">
                    <mxGeometry x="-437.5" y="2717" width="120" height="60" as="geometry"/>
                </mxCell>
                <mxCell id="128" value="ลูกค้ากดปุ่มตกลง" style="rhombus;whiteSpace=wrap;html=1;" parent="WIyWlLk6GJQsqaUBKTNV-1" vertex="1">
                    <mxGeometry x="-567.5" y="2937" width="80" height="80" as="geometry"/>
                </mxCell>
                <mxCell id="129" value="ปุ่มไม่ต้องการ,ปุ่มตกลง" style="shape=parallelogram;perimeter=parallelogramPerimeter;whiteSpace=wrap;html=1;fixedSize=1;" parent="WIyWlLk6GJQsqaUBKTNV-1" vertex="1">
                    <mxGeometry x="-447.5" y="2807" width="140" height="70" as="geometry"/>
                </mxCell>
                <mxCell id="130" value="" style="edgeStyle=orthogonalEdgeStyle;html=1;" parent="WIyWlLk6GJQsqaUBKTNV-1" source="131" target="135" edge="1">
                    <mxGeometry relative="1" as="geometry"/>
                </mxCell>
                <mxCell id="131" value="กรุณากดจำนวนที่ต้องการ" style="shape=parallelogram;perimeter=parallelogramPerimeter;whiteSpace=wrap;html=1;fixedSize=1;" parent="WIyWlLk6GJQsqaUBKTNV-1" vertex="1">
                    <mxGeometry x="-240" y="3067" width="120" height="60" as="geometry"/>
                </mxCell>
                <mxCell id="132" value="" style="edgeStyle=segmentEdgeStyle;endArrow=classic;html=1;curved=0;rounded=0;endSize=8;startSize=8;sourcePerimeterSpacing=0;targetPerimeterSpacing=0;entryX=0.5;entryY=0;entryDx=0;entryDy=0;exitX=1;exitY=0.5;exitDx=0;exitDy=0;" parent="WIyWlLk6GJQsqaUBKTNV-1" source="128" target="131" edge="1">
                    <mxGeometry width="100" relative="1" as="geometry">
                        <mxPoint x="347.5" y="2277" as="sourcePoint"/>
                        <mxPoint x="537.5" y="2347" as="targetPoint"/>
                        <Array as="points">
                            <mxPoint x="-180" y="2977"/>
                        </Array>
                    </mxGeometry>
                </mxCell>
                <mxCell id="133" value="&lt;span style=&quot;font-size: 36px;&quot;&gt;T&lt;/span&gt;" style="edgeLabel;html=1;align=center;verticalAlign=middle;resizable=0;points=[];" parent="132" vertex="1" connectable="0">
                    <mxGeometry x="-0.4077" y="1" relative="1" as="geometry">
                        <mxPoint as="offset"/>
                    </mxGeometry>
                </mxCell>
                <mxCell id="134" value="" style="edgeStyle=segmentEdgeStyle;endArrow=classic;html=1;curved=0;rounded=0;endSize=8;startSize=8;sourcePerimeterSpacing=0;targetPerimeterSpacing=0;entryX=0.5;entryY=0;entryDx=0;entryDy=0;exitX=0.5;exitY=1;exitDx=0;exitDy=0;" parent="WIyWlLk6GJQsqaUBKTNV-1" source="129" target="128" edge="1">
                    <mxGeometry width="100" relative="1" as="geometry">
                        <mxPoint x="317.5" y="2217" as="sourcePoint"/>
                        <mxPoint x="417.5" y="2257" as="targetPoint"/>
                        <Array as="points">
                            <mxPoint x="-379.5" y="2877"/>
                            <mxPoint x="-379.5" y="2907"/>
                            <mxPoint x="-527.5" y="2907"/>
                        </Array>
                    </mxGeometry>
                </mxCell>
                <mxCell id="135" value="CxH=FPAO" style="whiteSpace=wrap;html=1;" parent="WIyWlLk6GJQsqaUBKTNV-1" vertex="1">
                    <mxGeometry x="-226.25" y="3171" width="92.5" height="36" as="geometry"/>
                </mxCell>
                <mxCell id="164" style="edgeStyle=orthogonalEdgeStyle;html=1;entryX=0.5;entryY=0;entryDx=0;entryDy=0;fontFamily=Comic Sans MS;fontSize=36;" parent="WIyWlLk6GJQsqaUBKTNV-1" target="146" edge="1">
                    <mxGeometry relative="1" as="geometry">
                        <mxPoint x="-367" y="3370" as="sourcePoint"/>
                    </mxGeometry>
                </mxCell>
                <mxCell id="136" value="กรุณารอ3วินาทีเพื่อไปยัง&lt;br&gt;รายการถัดไป" style="shape=parallelogram;perimeter=parallelogramPerimeter;whiteSpace=wrap;html=1;fixedSize=1;" parent="WIyWlLk6GJQsqaUBKTNV-1" vertex="1">
                    <mxGeometry x="-482.5" y="3287" width="170" height="80" as="geometry"/>
                </mxCell>
                <mxCell id="137" value="" style="edgeStyle=segmentEdgeStyle;endArrow=classic;html=1;curved=0;rounded=0;endSize=8;startSize=8;sourcePerimeterSpacing=0;targetPerimeterSpacing=0;exitX=0.5;exitY=1;exitDx=0;exitDy=0;entryX=0.5;entryY=0;entryDx=0;entryDy=0;" parent="WIyWlLk6GJQsqaUBKTNV-1" source="135" target="136" edge="1">
                    <mxGeometry width="100" relative="1" as="geometry">
                        <mxPoint x="247.5" y="2497" as="sourcePoint"/>
                        <mxPoint x="237.5" y="2567" as="targetPoint"/>
                        <Array as="points">
                            <mxPoint x="-179.5" y="3237"/>
                            <mxPoint x="-397.5" y="3237"/>
                        </Array>
                    </mxGeometry>
                </mxCell>
                <mxCell id="138" value="" style="shape=waypoint;sketch=0;size=6;pointerEvents=1;points=[];fillColor=none;resizable=0;rotatable=0;perimeter=centerPerimeter;snapToPoint=1;" parent="WIyWlLk6GJQsqaUBKTNV-1" vertex="1">
                    <mxGeometry x="-407.5" y="3227" width="20" height="20" as="geometry"/>
                </mxCell>
                <mxCell id="139" value="&lt;span style=&quot;font-size: 36px;&quot;&gt;F&lt;/span&gt;" style="edgeLabel;html=1;align=center;verticalAlign=middle;resizable=0;points=[];" parent="WIyWlLk6GJQsqaUBKTNV-1" vertex="1" connectable="0">
                    <mxGeometry x="-620.0029411764702" y="3087" as="geometry">
                        <mxPoint x="-16" y="-20" as="offset"/>
                    </mxGeometry>
                </mxCell>
                <mxCell id="140" value="" style="endArrow=none;html=1;exitX=0;exitY=0.5;exitDx=0;exitDy=0;" parent="WIyWlLk6GJQsqaUBKTNV-1" source="128" edge="1">
                    <mxGeometry width="50" height="50" relative="1" as="geometry">
                        <mxPoint x="-490" y="3077" as="sourcePoint"/>
                        <mxPoint x="-620" y="2977" as="targetPoint"/>
                    </mxGeometry>
                </mxCell>
                <mxCell id="141" value="" style="endArrow=none;html=1;" parent="WIyWlLk6GJQsqaUBKTNV-1" edge="1">
                    <mxGeometry width="50" height="50" relative="1" as="geometry">
                        <mxPoint x="-620" y="3090" as="sourcePoint"/>
                        <mxPoint x="-620" y="2977" as="targetPoint"/>
                    </mxGeometry>
                </mxCell>
                <mxCell id="142" value="" style="endArrow=none;html=1;" parent="WIyWlLk6GJQsqaUBKTNV-1" edge="1">
                    <mxGeometry width="50" height="50" relative="1" as="geometry">
                        <mxPoint x="-620" y="3177" as="sourcePoint"/>
                        <mxPoint x="-400" y="3177" as="targetPoint"/>
                    </mxGeometry>
                </mxCell>
                <mxCell id="143" value="" style="endArrow=none;html=1;entryX=0.344;entryY=0.388;entryDx=0;entryDy=0;entryPerimeter=0;" parent="WIyWlLk6GJQsqaUBKTNV-1" target="138" edge="1">
                    <mxGeometry width="50" height="50" relative="1" as="geometry">
                        <mxPoint x="-400" y="3177" as="sourcePoint"/>
                        <mxPoint x="-440" y="3107" as="targetPoint"/>
                    </mxGeometry>
                </mxCell>
                <mxCell id="145" value="" style="edgeStyle=none;html=1;" parent="WIyWlLk6GJQsqaUBKTNV-1" source="146" target="148" edge="1">
                    <mxGeometry relative="1" as="geometry"/>
                </mxCell>
                <mxCell id="146" value="คุณต้องการขนมชั้น&lt;br&gt;หรือไม่" style="shape=parallelogram;perimeter=parallelogramPerimeter;whiteSpace=wrap;html=1;fixedSize=1;" parent="WIyWlLk6GJQsqaUBKTNV-1" vertex="1">
                    <mxGeometry x="-427.5" y="3408" width="120" height="60" as="geometry"/>
                </mxCell>
                <mxCell id="147" value="ลูกค้ากดปุ่มตกลง" style="rhombus;whiteSpace=wrap;html=1;" parent="WIyWlLk6GJQsqaUBKTNV-1" vertex="1">
                    <mxGeometry x="-557.5" y="3628" width="80" height="80" as="geometry"/>
                </mxCell>
                <mxCell id="148" value="ปุ่มไม่ต้องการ,ปุ่มตกลง" style="shape=parallelogram;perimeter=parallelogramPerimeter;whiteSpace=wrap;html=1;fixedSize=1;" parent="WIyWlLk6GJQsqaUBKTNV-1" vertex="1">
                    <mxGeometry x="-437.5" y="3498" width="140" height="70" as="geometry"/>
                </mxCell>
                <mxCell id="149" value="" style="edgeStyle=orthogonalEdgeStyle;html=1;" parent="WIyWlLk6GJQsqaUBKTNV-1" source="150" target="154" edge="1">
                    <mxGeometry relative="1" as="geometry"/>
                </mxCell>
                <mxCell id="150" value="กรุณากดจำนวนที่ต้องการ" style="shape=parallelogram;perimeter=parallelogramPerimeter;whiteSpace=wrap;html=1;fixedSize=1;" parent="WIyWlLk6GJQsqaUBKTNV-1" vertex="1">
                    <mxGeometry x="-230" y="3758" width="120" height="60" as="geometry"/>
                </mxCell>
                <mxCell id="151" value="" style="edgeStyle=segmentEdgeStyle;endArrow=classic;html=1;curved=0;rounded=0;endSize=8;startSize=8;sourcePerimeterSpacing=0;targetPerimeterSpacing=0;entryX=0.5;entryY=0;entryDx=0;entryDy=0;exitX=1;exitY=0.5;exitDx=0;exitDy=0;" parent="WIyWlLk6GJQsqaUBKTNV-1" source="147" target="150" edge="1">
                    <mxGeometry width="100" relative="1" as="geometry">
                        <mxPoint x="357.5" y="2968" as="sourcePoint"/>
                        <mxPoint x="547.5" y="3038" as="targetPoint"/>
                        <Array as="points">
                            <mxPoint x="-170" y="3668"/>
                        </Array>
                    </mxGeometry>
                </mxCell>
                <mxCell id="152" value="&lt;span style=&quot;font-size: 36px;&quot;&gt;T&lt;/span&gt;" style="edgeLabel;html=1;align=center;verticalAlign=middle;resizable=0;points=[];" parent="151" vertex="1" connectable="0">
                    <mxGeometry x="-0.4077" y="1" relative="1" as="geometry">
                        <mxPoint as="offset"/>
                    </mxGeometry>
                </mxCell>
                <mxCell id="153" value="" style="edgeStyle=segmentEdgeStyle;endArrow=classic;html=1;curved=0;rounded=0;endSize=8;startSize=8;sourcePerimeterSpacing=0;targetPerimeterSpacing=0;entryX=0.5;entryY=0;entryDx=0;entryDy=0;exitX=0.5;exitY=1;exitDx=0;exitDy=0;" parent="WIyWlLk6GJQsqaUBKTNV-1" source="148" target="147" edge="1">
                    <mxGeometry width="100" relative="1" as="geometry">
                        <mxPoint x="327.5" y="2908" as="sourcePoint"/>
                        <mxPoint x="427.5" y="2948" as="targetPoint"/>
                        <Array as="points">
                            <mxPoint x="-369.5" y="3568"/>
                            <mxPoint x="-369.5" y="3598"/>
                            <mxPoint x="-517.5" y="3598"/>
                        </Array>
                    </mxGeometry>
                </mxCell>
                <mxCell id="154" value="FSUNSS=OXH" style="whiteSpace=wrap;html=1;" parent="WIyWlLk6GJQsqaUBKTNV-1" vertex="1">
                    <mxGeometry x="-216.25" y="3862" width="92.5" height="36" as="geometry"/>
                </mxCell>
                <mxCell id="183" style="edgeStyle=orthogonalEdgeStyle;html=1;exitX=0.75;exitY=1;exitDx=0;exitDy=0;entryX=0.5;entryY=0;entryDx=0;entryDy=0;fontFamily=Comic Sans MS;fontSize=36;" parent="WIyWlLk6GJQsqaUBKTNV-1" source="155" target="166" edge="1">
                    <mxGeometry relative="1" as="geometry">
                        <Array as="points">
                            <mxPoint x="-345" y="4050"/>
                            <mxPoint x="-358" y="4050"/>
                        </Array>
                    </mxGeometry>
                </mxCell>
                <mxCell id="155" value="กรุณารอ3วินาทีเพื่อไปยัง&lt;br&gt;รายการถัดไป" style="shape=parallelogram;perimeter=parallelogramPerimeter;whiteSpace=wrap;html=1;fixedSize=1;" parent="WIyWlLk6GJQsqaUBKTNV-1" vertex="1">
                    <mxGeometry x="-472.5" y="3978" width="170" height="80" as="geometry"/>
                </mxCell>
                <mxCell id="156" value="" style="edgeStyle=segmentEdgeStyle;endArrow=classic;html=1;curved=0;rounded=0;endSize=8;startSize=8;sourcePerimeterSpacing=0;targetPerimeterSpacing=0;exitX=0.5;exitY=1;exitDx=0;exitDy=0;entryX=0.5;entryY=0;entryDx=0;entryDy=0;" parent="WIyWlLk6GJQsqaUBKTNV-1" source="154" target="155" edge="1">
                    <mxGeometry width="100" relative="1" as="geometry">
                        <mxPoint x="257.5" y="3188" as="sourcePoint"/>
                        <mxPoint x="247.5" y="3258" as="targetPoint"/>
                        <Array as="points">
                            <mxPoint x="-169.5" y="3928"/>
                            <mxPoint x="-387.5" y="3928"/>
                        </Array>
                    </mxGeometry>
                </mxCell>
                <mxCell id="157" value="" style="shape=waypoint;sketch=0;size=6;pointerEvents=1;points=[];fillColor=none;resizable=0;rotatable=0;perimeter=centerPerimeter;snapToPoint=1;" parent="WIyWlLk6GJQsqaUBKTNV-1" vertex="1">
                    <mxGeometry x="-397.5" y="3918" width="20" height="20" as="geometry"/>
                </mxCell>
                <mxCell id="158" value="&lt;span style=&quot;font-size: 36px;&quot;&gt;F&lt;/span&gt;" style="edgeLabel;html=1;align=center;verticalAlign=middle;resizable=0;points=[];" parent="WIyWlLk6GJQsqaUBKTNV-1" vertex="1" connectable="0">
                    <mxGeometry x="-610.0029411764702" y="3778" as="geometry">
                        <mxPoint x="-16" y="-20" as="offset"/>
                    </mxGeometry>
                </mxCell>
                <mxCell id="159" value="" style="endArrow=none;html=1;exitX=0;exitY=0.5;exitDx=0;exitDy=0;" parent="WIyWlLk6GJQsqaUBKTNV-1" source="147" edge="1">
                    <mxGeometry width="50" height="50" relative="1" as="geometry">
                        <mxPoint x="-480" y="3768" as="sourcePoint"/>
                        <mxPoint x="-610" y="3668" as="targetPoint"/>
                    </mxGeometry>
                </mxCell>
                <mxCell id="160" value="" style="endArrow=none;html=1;exitX=0.5;exitY=0;exitDx=0;exitDy=0;" parent="WIyWlLk6GJQsqaUBKTNV-1" source="211" edge="1">
                    <mxGeometry width="50" height="50" relative="1" as="geometry">
                        <mxPoint x="-610" y="3868" as="sourcePoint"/>
                        <mxPoint x="-610" y="3668" as="targetPoint"/>
                    </mxGeometry>
                </mxCell>
                <mxCell id="161" value="" style="endArrow=none;html=1;" parent="WIyWlLk6GJQsqaUBKTNV-1" edge="1">
                    <mxGeometry width="50" height="50" relative="1" as="geometry">
                        <mxPoint x="-610" y="3868" as="sourcePoint"/>
                        <mxPoint x="-390" y="3868" as="targetPoint"/>
                    </mxGeometry>
                </mxCell>
                <mxCell id="162" value="" style="endArrow=none;html=1;entryX=0.344;entryY=0.388;entryDx=0;entryDy=0;entryPerimeter=0;" parent="WIyWlLk6GJQsqaUBKTNV-1" target="157" edge="1">
                    <mxGeometry width="50" height="50" relative="1" as="geometry">
                        <mxPoint x="-390" y="3868" as="sourcePoint"/>
                        <mxPoint x="-430" y="3798" as="targetPoint"/>
                    </mxGeometry>
                </mxCell>
                <mxCell id="165" value="" style="edgeStyle=none;html=1;" parent="WIyWlLk6GJQsqaUBKTNV-1" source="166" target="168" edge="1">
                    <mxGeometry relative="1" as="geometry"/>
                </mxCell>
                <mxCell id="166" value="คุณต้องการฝอย&lt;br&gt;ทองหรือไม่" style="shape=parallelogram;perimeter=parallelogramPerimeter;whiteSpace=wrap;html=1;fixedSize=1;" parent="WIyWlLk6GJQsqaUBKTNV-1" vertex="1">
                    <mxGeometry x="-417.5" y="4100" width="120" height="60" as="geometry"/>
                </mxCell>
                <mxCell id="167" value="ลูกค้ากดปุ่มตกลง" style="rhombus;whiteSpace=wrap;html=1;" parent="WIyWlLk6GJQsqaUBKTNV-1" vertex="1">
                    <mxGeometry x="-547.5" y="4320" width="80" height="80" as="geometry"/>
                </mxCell>
                <mxCell id="168" value="ปุ่มไม่ต้องการ,ปุ่มตกลง" style="shape=parallelogram;perimeter=parallelogramPerimeter;whiteSpace=wrap;html=1;fixedSize=1;" parent="WIyWlLk6GJQsqaUBKTNV-1" vertex="1">
                    <mxGeometry x="-427.5" y="4190" width="140" height="70" as="geometry"/>
                </mxCell>
                <mxCell id="169" value="" style="edgeStyle=orthogonalEdgeStyle;html=1;" parent="WIyWlLk6GJQsqaUBKTNV-1" source="170" target="174" edge="1">
                    <mxGeometry relative="1" as="geometry"/>
                </mxCell>
                <mxCell id="170" value="กรุณากดจำนวนที่ต้องการ" style="shape=parallelogram;perimeter=parallelogramPerimeter;whiteSpace=wrap;html=1;fixedSize=1;" parent="WIyWlLk6GJQsqaUBKTNV-1" vertex="1">
                    <mxGeometry x="-220" y="4450" width="120" height="60" as="geometry"/>
                </mxCell>
                <mxCell id="171" value="" style="edgeStyle=segmentEdgeStyle;endArrow=classic;html=1;curved=0;rounded=0;endSize=8;startSize=8;sourcePerimeterSpacing=0;targetPerimeterSpacing=0;entryX=0.5;entryY=0;entryDx=0;entryDy=0;exitX=1;exitY=0.5;exitDx=0;exitDy=0;" parent="WIyWlLk6GJQsqaUBKTNV-1" source="167" target="170" edge="1">
                    <mxGeometry width="100" relative="1" as="geometry">
                        <mxPoint x="367.5" y="3660" as="sourcePoint"/>
                        <mxPoint x="557.5" y="3730" as="targetPoint"/>
                        <Array as="points">
                            <mxPoint x="-160" y="4360"/>
                        </Array>
                    </mxGeometry>
                </mxCell>
                <mxCell id="172" value="&lt;span style=&quot;font-size: 36px;&quot;&gt;T&lt;/span&gt;" style="edgeLabel;html=1;align=center;verticalAlign=middle;resizable=0;points=[];" parent="171" vertex="1" connectable="0">
                    <mxGeometry x="-0.4077" y="1" relative="1" as="geometry">
                        <mxPoint as="offset"/>
                    </mxGeometry>
                </mxCell>
                <mxCell id="173" value="" style="edgeStyle=segmentEdgeStyle;endArrow=classic;html=1;curved=0;rounded=0;endSize=8;startSize=8;sourcePerimeterSpacing=0;targetPerimeterSpacing=0;entryX=0.5;entryY=0;entryDx=0;entryDy=0;exitX=0.5;exitY=1;exitDx=0;exitDy=0;" parent="WIyWlLk6GJQsqaUBKTNV-1" source="168" target="167" edge="1">
                    <mxGeometry width="100" relative="1" as="geometry">
                        <mxPoint x="337.5" y="3600" as="sourcePoint"/>
                        <mxPoint x="437.5" y="3640" as="targetPoint"/>
                        <Array as="points">
                            <mxPoint x="-359.5" y="4260"/>
                            <mxPoint x="-359.5" y="4290"/>
                            <mxPoint x="-507.5" y="4290"/>
                        </Array>
                    </mxGeometry>
                </mxCell>
                <mxCell id="174" value="FFOY=EXH" style="whiteSpace=wrap;html=1;" parent="WIyWlLk6GJQsqaUBKTNV-1" vertex="1">
                    <mxGeometry x="-206.25" y="4554" width="92.5" height="36" as="geometry"/>
                </mxCell>
                <mxCell id="202" style="edgeStyle=orthogonalEdgeStyle;html=1;exitX=0.75;exitY=1;exitDx=0;exitDy=0;entryX=0.6;entryY=0;entryDx=0;entryDy=0;entryPerimeter=0;fontFamily=Comic Sans MS;fontSize=36;" parent="WIyWlLk6GJQsqaUBKTNV-1" source="175" target="185" edge="1">
                    <mxGeometry relative="1" as="geometry"/>
                </mxCell>
                <mxCell id="175" value="กรุณารอ3วินาทีเพื่อไปยัง&lt;br&gt;รายการถัดไป" style="shape=parallelogram;perimeter=parallelogramPerimeter;whiteSpace=wrap;html=1;fixedSize=1;" parent="WIyWlLk6GJQsqaUBKTNV-1" vertex="1">
                    <mxGeometry x="-462.5" y="4670" width="170" height="80" as="geometry"/>
                </mxCell>
                <mxCell id="176" value="" style="edgeStyle=segmentEdgeStyle;endArrow=classic;html=1;curved=0;rounded=0;endSize=8;startSize=8;sourcePerimeterSpacing=0;targetPerimeterSpacing=0;exitX=0.5;exitY=1;exitDx=0;exitDy=0;entryX=0.5;entryY=0;entryDx=0;entryDy=0;" parent="WIyWlLk6GJQsqaUBKTNV-1" source="174" target="175" edge="1">
                    <mxGeometry width="100" relative="1" as="geometry">
                        <mxPoint x="267.5" y="3880" as="sourcePoint"/>
                        <mxPoint x="257.5" y="3950" as="targetPoint"/>
                        <Array as="points">
                            <mxPoint x="-159.5" y="4620"/>
                            <mxPoint x="-377.5" y="4620"/>
                        </Array>
                    </mxGeometry>
                </mxCell>
                <mxCell id="177" value="" style="shape=waypoint;sketch=0;size=6;pointerEvents=1;points=[];fillColor=none;resizable=0;rotatable=0;perimeter=centerPerimeter;snapToPoint=1;" parent="WIyWlLk6GJQsqaUBKTNV-1" vertex="1">
                    <mxGeometry x="-387.5" y="4610" width="20" height="20" as="geometry"/>
                </mxCell>
                <mxCell id="178" value="&lt;span style=&quot;font-size: 36px;&quot;&gt;F&lt;/span&gt;" style="edgeLabel;html=1;align=center;verticalAlign=middle;resizable=0;points=[];" parent="WIyWlLk6GJQsqaUBKTNV-1" vertex="1" connectable="0">
                    <mxGeometry x="-600.0029411764702" y="4470" as="geometry">
                        <mxPoint x="-16" y="-20" as="offset"/>
                    </mxGeometry>
                </mxCell>
                <mxCell id="179" value="" style="endArrow=none;html=1;exitX=0;exitY=0.5;exitDx=0;exitDy=0;" parent="WIyWlLk6GJQsqaUBKTNV-1" source="167" edge="1">
                    <mxGeometry width="50" height="50" relative="1" as="geometry">
                        <mxPoint x="-470" y="4460" as="sourcePoint"/>
                        <mxPoint x="-600" y="4360" as="targetPoint"/>
                    </mxGeometry>
                </mxCell>
                <mxCell id="180" value="" style="endArrow=none;html=1;" parent="WIyWlLk6GJQsqaUBKTNV-1" edge="1">
                    <mxGeometry width="50" height="50" relative="1" as="geometry">
                        <mxPoint x="-600" y="4480" as="sourcePoint"/>
                        <mxPoint x="-600" y="4360" as="targetPoint"/>
                    </mxGeometry>
                </mxCell>
                <mxCell id="181" value="" style="endArrow=none;html=1;" parent="WIyWlLk6GJQsqaUBKTNV-1" edge="1">
                    <mxGeometry width="50" height="50" relative="1" as="geometry">
                        <mxPoint x="-600" y="4560" as="sourcePoint"/>
                        <mxPoint x="-380" y="4560" as="targetPoint"/>
                    </mxGeometry>
                </mxCell>
                <mxCell id="182" value="" style="endArrow=none;html=1;entryX=0.344;entryY=0.388;entryDx=0;entryDy=0;entryPerimeter=0;" parent="WIyWlLk6GJQsqaUBKTNV-1" target="177" edge="1">
                    <mxGeometry width="50" height="50" relative="1" as="geometry">
                        <mxPoint x="-380" y="4560" as="sourcePoint"/>
                        <mxPoint x="-420" y="4490" as="targetPoint"/>
                    </mxGeometry>
                </mxCell>
                <mxCell id="184" value="" style="edgeStyle=none;html=1;" parent="WIyWlLk6GJQsqaUBKTNV-1" source="185" target="187" edge="1">
                    <mxGeometry relative="1" as="geometry"/>
                </mxCell>
                <mxCell id="185" value="คุณต้องการลำไย&lt;br&gt;อบแห้งหรือไม่" style="shape=parallelogram;perimeter=parallelogramPerimeter;whiteSpace=wrap;html=1;fixedSize=1;" parent="WIyWlLk6GJQsqaUBKTNV-1" vertex="1">
                    <mxGeometry x="-407.5" y="4800" width="120" height="60" as="geometry"/>
                </mxCell>
                <mxCell id="186" value="ลูกค้ากดปุ่มตกลง" style="rhombus;whiteSpace=wrap;html=1;" parent="WIyWlLk6GJQsqaUBKTNV-1" vertex="1">
                    <mxGeometry x="-537.5" y="5020" width="80" height="80" as="geometry"/>
                </mxCell>
                <mxCell id="187" value="ปุ่มไม่ต้องการ,ปุ่มตกลง" style="shape=parallelogram;perimeter=parallelogramPerimeter;whiteSpace=wrap;html=1;fixedSize=1;" parent="WIyWlLk6GJQsqaUBKTNV-1" vertex="1">
                    <mxGeometry x="-417.5" y="4890" width="140" height="70" as="geometry"/>
                </mxCell>
                <mxCell id="188" value="" style="edgeStyle=orthogonalEdgeStyle;html=1;" parent="WIyWlLk6GJQsqaUBKTNV-1" source="189" target="193" edge="1">
                    <mxGeometry relative="1" as="geometry"/>
                </mxCell>
                <mxCell id="189" value="กรุณากดจำนวนที่ต้องการ" style="shape=parallelogram;perimeter=parallelogramPerimeter;whiteSpace=wrap;html=1;fixedSize=1;" parent="WIyWlLk6GJQsqaUBKTNV-1" vertex="1">
                    <mxGeometry x="-210" y="5150" width="120" height="60" as="geometry"/>
                </mxCell>
                <mxCell id="190" value="" style="edgeStyle=segmentEdgeStyle;endArrow=classic;html=1;curved=0;rounded=0;endSize=8;startSize=8;sourcePerimeterSpacing=0;targetPerimeterSpacing=0;entryX=0.5;entryY=0;entryDx=0;entryDy=0;exitX=1;exitY=0.5;exitDx=0;exitDy=0;" parent="WIyWlLk6GJQsqaUBKTNV-1" source="186" target="189" edge="1">
                    <mxGeometry width="100" relative="1" as="geometry">
                        <mxPoint x="377.5" y="4360" as="sourcePoint"/>
                        <mxPoint x="567.5" y="4430" as="targetPoint"/>
                        <Array as="points">
                            <mxPoint x="-150" y="5060"/>
                        </Array>
                    </mxGeometry>
                </mxCell>
                <mxCell id="191" value="&lt;span style=&quot;font-size: 36px;&quot;&gt;T&lt;/span&gt;" style="edgeLabel;html=1;align=center;verticalAlign=middle;resizable=0;points=[];" parent="190" vertex="1" connectable="0">
                    <mxGeometry x="-0.4077" y="1" relative="1" as="geometry">
                        <mxPoint as="offset"/>
                    </mxGeometry>
                </mxCell>
                <mxCell id="192" value="" style="edgeStyle=segmentEdgeStyle;endArrow=classic;html=1;curved=0;rounded=0;endSize=8;startSize=8;sourcePerimeterSpacing=0;targetPerimeterSpacing=0;entryX=0.5;entryY=0;entryDx=0;entryDy=0;exitX=0.5;exitY=1;exitDx=0;exitDy=0;" parent="WIyWlLk6GJQsqaUBKTNV-1" source="187" target="186" edge="1">
                    <mxGeometry width="100" relative="1" as="geometry">
                        <mxPoint x="347.5" y="4300" as="sourcePoint"/>
                        <mxPoint x="447.5" y="4340" as="targetPoint"/>
                        <Array as="points">
                            <mxPoint x="-349.5" y="4960"/>
                            <mxPoint x="-349.5" y="4990"/>
                            <mxPoint x="-497.5" y="4990"/>
                        </Array>
                    </mxGeometry>
                </mxCell>
                <mxCell id="193" value="FLUMYAI=EXH" style="whiteSpace=wrap;html=1;" parent="WIyWlLk6GJQsqaUBKTNV-1" vertex="1">
                    <mxGeometry x="-196.25" y="5254" width="92.5" height="36" as="geometry"/>
                </mxCell>
                <mxCell id="195" value="" style="edgeStyle=segmentEdgeStyle;endArrow=classic;html=1;curved=0;rounded=0;endSize=8;startSize=8;sourcePerimeterSpacing=0;targetPerimeterSpacing=0;exitX=0.5;exitY=1;exitDx=0;exitDy=0;entryX=0.5;entryY=0;entryDx=0;entryDy=0;" parent="WIyWlLk6GJQsqaUBKTNV-1" source="193" target="194" edge="1">
                    <mxGeometry width="100" relative="1" as="geometry">
                        <mxPoint x="277.5" y="4580" as="sourcePoint"/>
                        <mxPoint x="267.5" y="4650" as="targetPoint"/>
                        <Array as="points">
                            <mxPoint x="-150" y="5320"/>
                            <mxPoint x="-368" y="5320"/>
                            <mxPoint x="-368" y="5340"/>
                            <mxPoint x="-360" y="5340"/>
                        </Array>
                    </mxGeometry>
                </mxCell>
                <mxCell id="196" value="" style="shape=waypoint;sketch=0;size=6;pointerEvents=1;points=[];fillColor=none;resizable=0;rotatable=0;perimeter=centerPerimeter;snapToPoint=1;" parent="WIyWlLk6GJQsqaUBKTNV-1" vertex="1">
                    <mxGeometry x="-377.5" y="5310" width="20" height="20" as="geometry"/>
                </mxCell>
                <mxCell id="197" value="&lt;span style=&quot;font-size: 36px;&quot;&gt;F&lt;/span&gt;" style="edgeLabel;html=1;align=center;verticalAlign=middle;resizable=0;points=[];" parent="WIyWlLk6GJQsqaUBKTNV-1" vertex="1" connectable="0">
                    <mxGeometry x="-590.0029411764702" y="5170" as="geometry">
                        <mxPoint x="-16" y="-20" as="offset"/>
                    </mxGeometry>
                </mxCell>
                <mxCell id="198" value="" style="endArrow=none;html=1;exitX=0;exitY=0.5;exitDx=0;exitDy=0;" parent="WIyWlLk6GJQsqaUBKTNV-1" source="186" edge="1">
                    <mxGeometry width="50" height="50" relative="1" as="geometry">
                        <mxPoint x="-460" y="5160" as="sourcePoint"/>
                        <mxPoint x="-590" y="5060" as="targetPoint"/>
                    </mxGeometry>
                </mxCell>
                <mxCell id="199" value="" style="endArrow=none;html=1;" parent="WIyWlLk6GJQsqaUBKTNV-1" edge="1">
                    <mxGeometry width="50" height="50" relative="1" as="geometry">
                        <mxPoint x="-590" y="5180" as="sourcePoint"/>
                        <mxPoint x="-590" y="5060" as="targetPoint"/>
                    </mxGeometry>
                </mxCell>
                <mxCell id="200" value="" style="endArrow=none;html=1;" parent="WIyWlLk6GJQsqaUBKTNV-1" edge="1">
                    <mxGeometry width="50" height="50" relative="1" as="geometry">
                        <mxPoint x="-590" y="5260" as="sourcePoint"/>
                        <mxPoint x="-370" y="5260" as="targetPoint"/>
                    </mxGeometry>
                </mxCell>
                <mxCell id="201" value="" style="endArrow=none;html=1;entryX=0.344;entryY=0.388;entryDx=0;entryDy=0;entryPerimeter=0;" parent="WIyWlLk6GJQsqaUBKTNV-1" target="196" edge="1">
                    <mxGeometry width="50" height="50" relative="1" as="geometry">
                        <mxPoint x="-370" y="5260" as="sourcePoint"/>
                        <mxPoint x="-410" y="5190" as="targetPoint"/>
                    </mxGeometry>
                </mxCell>
                <mxCell id="207" style="edgeStyle=orthogonalEdgeStyle;html=1;exitX=0.5;exitY=1;exitDx=0;exitDy=0;fontFamily=Helvetica;fontSize=12;" parent="WIyWlLk6GJQsqaUBKTNV-1" source="206" edge="1">
                    <mxGeometry relative="1" as="geometry">
                        <mxPoint x="-589.6190476190477" y="5220.095238095238" as="targetPoint"/>
                    </mxGeometry>
                </mxCell>
                <mxCell id="208" value="" style="endArrow=none;html=1;fontFamily=Helvetica;fontSize=12;entryX=0.5;entryY=1;entryDx=0;entryDy=0;" parent="WIyWlLk6GJQsqaUBKTNV-1" target="206" edge="1">
                    <mxGeometry width="50" height="50" relative="1" as="geometry">
                        <mxPoint x="-590" y="5260" as="sourcePoint"/>
                        <mxPoint x="-400" y="5200" as="targetPoint"/>
                    </mxGeometry>
                </mxCell>
                <mxCell id="210" value="" style="endArrow=none;html=1;fontFamily=Helvetica;fontSize=12;entryX=0.5;entryY=1;entryDx=0;entryDy=0;" parent="WIyWlLk6GJQsqaUBKTNV-1" target="209" edge="1">
                    <mxGeometry width="50" height="50" relative="1" as="geometry">
                        <mxPoint x="-600" y="4560" as="sourcePoint"/>
                        <mxPoint x="-400" y="4410" as="targetPoint"/>
                    </mxGeometry>
                </mxCell>
                <mxCell id="213" value="" style="endArrow=none;html=1;fontFamily=Helvetica;fontSize=12;entryX=0.5;entryY=1;entryDx=0;entryDy=0;" parent="WIyWlLk6GJQsqaUBKTNV-1" target="211" edge="1">
                    <mxGeometry width="50" height="50" relative="1" as="geometry">
                        <mxPoint x="-610" y="3870" as="sourcePoint"/>
                        <mxPoint x="-400" y="3810" as="targetPoint"/>
                    </mxGeometry>
                </mxCell>
                <mxCell id="215" value="" style="endArrow=none;html=1;fontFamily=Helvetica;fontSize=12;entryX=0.5;entryY=1;entryDx=0;entryDy=0;" parent="WIyWlLk6GJQsqaUBKTNV-1" target="214" edge="1">
                    <mxGeometry width="50" height="50" relative="1" as="geometry">
                        <mxPoint x="-620" y="3180" as="sourcePoint"/>
                        <mxPoint x="-400" y="3020" as="targetPoint"/>
                    </mxGeometry>
                </mxCell>
                <mxCell id="217" value="" style="endArrow=none;html=1;fontFamily=Helvetica;fontSize=12;entryX=0.5;entryY=1;entryDx=0;entryDy=0;" parent="WIyWlLk6GJQsqaUBKTNV-1" target="216" edge="1">
                    <mxGeometry width="50" height="50" relative="1" as="geometry">
                        <mxPoint x="-630" y="2470" as="sourcePoint"/>
                        <mxPoint x="-400" y="2330" as="targetPoint"/>
                    </mxGeometry>
                </mxCell>
                <mxCell id="219" value="" style="endArrow=none;html=1;fontFamily=Helvetica;fontSize=12;entryX=0.5;entryY=1;entryDx=0;entryDy=0;" parent="WIyWlLk6GJQsqaUBKTNV-1" target="218" edge="1">
                    <mxGeometry width="50" height="50" relative="1" as="geometry">
                        <mxPoint x="-637" y="1760" as="sourcePoint"/>
                        <mxPoint x="-400" y="1610" as="targetPoint"/>
                    </mxGeometry>
                </mxCell>
                <mxCell id="242" value="" style="edgeStyle=segmentEdgeStyle;endArrow=classic;html=1;curved=0;rounded=0;endSize=8;startSize=8;sourcePerimeterSpacing=0;targetPerimeterSpacing=0;" parent="WIyWlLk6GJQsqaUBKTNV-1" edge="1">
                    <mxGeometry width="100" relative="1" as="geometry">
                        <mxPoint x="-130" y="6410" as="sourcePoint"/>
                        <mxPoint x="-330" y="6470" as="targetPoint"/>
                        <Array as="points">
                            <mxPoint x="-130" y="6450"/>
                            <mxPoint x="-330" y="6450"/>
                        </Array>
                    </mxGeometry>
                </mxCell>
                <mxCell id="243" value="" style="endArrow=none;html=1;entryX=0.446;entryY=0.998;entryDx=0;entryDy=0;entryPerimeter=0;" parent="WIyWlLk6GJQsqaUBKTNV-1" target="234" edge="1">
                    <mxGeometry width="50" height="50" relative="1" as="geometry">
                        <mxPoint x="-489" y="6420" as="sourcePoint"/>
                        <mxPoint x="-350" y="6300" as="targetPoint"/>
                    </mxGeometry>
                </mxCell>
                <mxCell id="244" value="" style="endArrow=none;html=1;" parent="WIyWlLk6GJQsqaUBKTNV-1" edge="1">
                    <mxGeometry width="50" height="50" relative="1" as="geometry">
                        <mxPoint x="-490" y="6420" as="sourcePoint"/>
                        <mxPoint x="-320" y="6420" as="targetPoint"/>
                    </mxGeometry>
                </mxCell>
                <mxCell id="247" value="" style="endArrow=none;html=1;startArrow=none;" parent="WIyWlLk6GJQsqaUBKTNV-1" source="245" edge="1">
                    <mxGeometry width="50" height="50" relative="1" as="geometry">
                        <mxPoint x="-320" y="6420" as="sourcePoint"/>
                        <mxPoint x="-320" y="6450" as="targetPoint"/>
                    </mxGeometry>
                </mxCell>
                <mxCell id="248" value="" style="endArrow=none;html=1;" parent="WIyWlLk6GJQsqaUBKTNV-1" target="245" edge="1">
                    <mxGeometry width="50" height="50" relative="1" as="geometry">
                        <mxPoint x="-320" y="6420" as="sourcePoint"/>
                        <mxPoint x="-320" y="6450" as="targetPoint"/>
                    </mxGeometry>
                </mxCell>
                <mxCell id="245" value="" style="shape=waypoint;sketch=0;size=6;pointerEvents=1;points=[];fillColor=none;resizable=0;rotatable=0;perimeter=centerPerimeter;snapToPoint=1;" parent="WIyWlLk6GJQsqaUBKTNV-1" vertex="1">
                    <mxGeometry x="-327.5" y="6440" width="20" height="20" as="geometry"/>
                </mxCell>
                <mxCell id="263" value="" style="edgeStyle=segmentEdgeStyle;endArrow=classic;html=1;curved=0;rounded=0;endSize=8;startSize=8;sourcePerimeterSpacing=0;targetPerimeterSpacing=0;exitX=0.033;exitY=0.493;exitDx=0;exitDy=0;exitPerimeter=0;" parent="WIyWlLk6GJQsqaUBKTNV-1" source="241" edge="1">
                    <mxGeometry width="100" relative="1" as="geometry">
                        <mxPoint x="-390" y="6530" as="sourcePoint"/>
                        <mxPoint x="-450" y="6660" as="targetPoint"/>
                        <Array as="points">
                            <mxPoint x="-450" y="6510"/>
                            <mxPoint x="-450" y="6600"/>
                        </Array>
                    </mxGeometry>
                </mxCell>
                <mxCell id="273" value="" style="endArrow=none;html=1;exitX=0.471;exitY=1.045;exitDx=0;exitDy=0;exitPerimeter=0;" parent="WIyWlLk6GJQsqaUBKTNV-1" source="269" edge="1">
                    <mxGeometry width="50" height="50" relative="1" as="geometry">
                        <mxPoint x="-320" y="6710" as="sourcePoint"/>
                        <mxPoint x="-453" y="6750" as="targetPoint"/>
                    </mxGeometry>
                </mxCell>
                <mxCell id="274" value="" style="endArrow=none;html=1;" parent="WIyWlLk6GJQsqaUBKTNV-1" edge="1">
                    <mxGeometry width="50" height="50" relative="1" as="geometry">
                        <mxPoint x="-450" y="6750" as="sourcePoint"/>
                        <mxPoint x="-320" y="6770" as="targetPoint"/>
                    </mxGeometry>
                </mxCell>
                <mxCell id="287" value="" style="endArrow=none;html=1;exitX=0.625;exitY=1;exitDx=0;exitDy=0;exitPerimeter=0;" parent="WIyWlLk6GJQsqaUBKTNV-1" source="277" edge="1">
                    <mxGeometry width="50" height="50" relative="1" as="geometry">
                        <mxPoint x="-360" y="7071" as="sourcePoint"/>
                        <mxPoint x="-410" y="7041" as="targetPoint"/>
                    </mxGeometry>
                </mxCell>
                <mxCell id="288" value="" style="endArrow=none;html=1;" parent="WIyWlLk6GJQsqaUBKTNV-1" edge="1">
                    <mxGeometry width="50" height="50" relative="1" as="geometry">
                        <mxPoint x="-410" y="7041" as="sourcePoint"/>
                        <mxPoint x="-280" y="7051" as="targetPoint"/>
                    </mxGeometry>
                </mxCell>
                <mxCell id="289" value="" style="endArrow=none;html=1;entryX=0.47;entryY=1.039;entryDx=0;entryDy=0;entryPerimeter=0;" parent="WIyWlLk6GJQsqaUBKTNV-1" target="278" edge="1">
                    <mxGeometry width="50" height="50" relative="1" as="geometry">
                        <mxPoint x="-280" y="7051" as="sourcePoint"/>
                        <mxPoint x="-310" y="7021" as="targetPoint"/>
                    </mxGeometry>
                </mxCell>
                <mxCell id="292" value="&lt;div&gt;TFT/2O=TT&lt;/div&gt;&lt;div&gt;TT X 20-TFT=TTT&lt;/div&gt;" style="rounded=0;whiteSpace=wrap;html=1;" parent="WIyWlLk6GJQsqaUBKTNV-1" vertex="1">
                    <mxGeometry x="-440" y="7190" width="120" height="60" as="geometry"/>
                </mxCell>
                <mxCell id="293" value="TT=0" style="whiteSpace=wrap;html=1;" parent="WIyWlLk6GJQsqaUBKTNV-1" vertex="1">
                    <mxGeometry x="-153.75" y="7190" width="100" height="40" as="geometry"/>
                </mxCell>
                <mxCell id="294" value="" style="edgeStyle=segmentEdgeStyle;endArrow=classic;html=1;curved=0;rounded=0;endSize=8;startSize=8;sourcePerimeterSpacing=0;targetPerimeterSpacing=0;" parent="WIyWlLk6GJQsqaUBKTNV-1" target="292" edge="1">
                    <mxGeometry width="100" relative="1" as="geometry">
                        <mxPoint x="-317.5" y="7120" as="sourcePoint"/>
                        <mxPoint x="372.5" y="6499" as="targetPoint"/>
                        <Array as="points">
                            <mxPoint x="-377" y="7120"/>
                        </Array>
                    </mxGeometry>
                </mxCell>
                <mxCell id="295" value="T" style="text;html=1;align=center;verticalAlign=middle;resizable=0;points=[];autosize=1;strokeColor=none;fillColor=none;" parent="WIyWlLk6GJQsqaUBKTNV-1" vertex="1">
                    <mxGeometry x="-430" y="7105" width="30" height="30" as="geometry"/>
                </mxCell>
                <mxCell id="296" value="" style="edgeStyle=segmentEdgeStyle;endArrow=classic;html=1;curved=0;rounded=0;endSize=8;startSize=8;sourcePerimeterSpacing=0;targetPerimeterSpacing=0;entryX=0.47;entryY=0.039;entryDx=0;entryDy=0;entryPerimeter=0;" parent="WIyWlLk6GJQsqaUBKTNV-1" target="293" edge="1">
                    <mxGeometry width="100" relative="1" as="geometry">
                        <mxPoint x="-235" y="7120" as="sourcePoint"/>
                        <mxPoint x="565" y="6499" as="targetPoint"/>
                        <Array as="points">
                            <mxPoint x="-105" y="7120"/>
                            <mxPoint x="-105" y="7160"/>
                            <mxPoint x="-107" y="7160"/>
                        </Array>
                    </mxGeometry>
                </mxCell>
                <mxCell id="297" value="F" style="text;html=1;align=center;verticalAlign=middle;resizable=0;points=[];autosize=1;strokeColor=none;fillColor=none;" parent="WIyWlLk6GJQsqaUBKTNV-1" vertex="1">
                    <mxGeometry x="-185" y="7130" width="30" height="30" as="geometry"/>
                </mxCell>
                <mxCell id="298" value="" style="shape=waypoint;sketch=0;size=6;pointerEvents=1;points=[];fillColor=none;resizable=0;rotatable=0;perimeter=centerPerimeter;snapToPoint=1;" parent="WIyWlLk6GJQsqaUBKTNV-1" vertex="1">
                    <mxGeometry x="-250" y="7310" width="20" height="20" as="geometry"/>
                </mxCell>
                <mxCell id="299" value="" style="endArrow=classic;html=1;entryX=0.491;entryY=0.006;entryDx=0;entryDy=0;entryPerimeter=0;exitX=0.467;exitY=0.828;exitDx=0;exitDy=0;exitPerimeter=0;" parent="WIyWlLk6GJQsqaUBKTNV-1" source="298" target="303" edge="1">
                    <mxGeometry width="50" height="50" relative="1" as="geometry">
                        <mxPoint x="385" y="6679" as="sourcePoint"/>
                        <mxPoint x="-227.92000000000007" y="7351.6" as="targetPoint"/>
                    </mxGeometry>
                </mxCell>
                <mxCell id="300" value="" style="endArrow=none;html=1;exitX=0.625;exitY=1;exitDx=0;exitDy=0;exitPerimeter=0;" parent="WIyWlLk6GJQsqaUBKTNV-1" source="292" edge="1">
                    <mxGeometry width="50" height="50" relative="1" as="geometry">
                        <mxPoint x="-315" y="7340" as="sourcePoint"/>
                        <mxPoint x="-365" y="7310" as="targetPoint"/>
                    </mxGeometry>
                </mxCell>
                <mxCell id="301" value="" style="endArrow=none;html=1;" parent="WIyWlLk6GJQsqaUBKTNV-1" edge="1">
                    <mxGeometry width="50" height="50" relative="1" as="geometry">
                        <mxPoint x="-365" y="7310" as="sourcePoint"/>
                        <mxPoint x="-235" y="7320" as="targetPoint"/>
                    </mxGeometry>
                </mxCell>
                <mxCell id="302" value="" style="endArrow=none;html=1;entryX=0.47;entryY=1.039;entryDx=0;entryDy=0;entryPerimeter=0;" parent="WIyWlLk6GJQsqaUBKTNV-1" target="293" edge="1">
                    <mxGeometry width="50" height="50" relative="1" as="geometry">
                        <mxPoint x="-235" y="7320" as="sourcePoint"/>
                        <mxPoint x="-265" y="7290" as="targetPoint"/>
                    </mxGeometry>
                </mxCell>
                <mxCell id="304" value="&lt;div&gt;TTT/10=TB&lt;/div&gt;&lt;div&gt;TB X 10-TTT=TTB&lt;/div&gt;" style="rounded=0;whiteSpace=wrap;html=1;" parent="WIyWlLk6GJQsqaUBKTNV-1" vertex="1">
                    <mxGeometry x="-433" y="7460" width="120" height="60" as="geometry"/>
                </mxCell>
                <mxCell id="305" value="" style="edgeStyle=segmentEdgeStyle;endArrow=classic;html=1;curved=0;rounded=0;endSize=8;startSize=8;sourcePerimeterSpacing=0;targetPerimeterSpacing=0;" parent="WIyWlLk6GJQsqaUBKTNV-1" target="304" edge="1">
                    <mxGeometry width="100" relative="1" as="geometry">
                        <mxPoint x="-310.5" y="7390" as="sourcePoint"/>
                        <mxPoint x="379.5" y="6769" as="targetPoint"/>
                        <Array as="points">
                            <mxPoint x="-370" y="7390"/>
                        </Array>
                    </mxGeometry>
                </mxCell>
                <mxCell id="306" value="" style="edgeStyle=segmentEdgeStyle;endArrow=classic;html=1;curved=0;rounded=0;endSize=8;startSize=8;sourcePerimeterSpacing=0;targetPerimeterSpacing=0;entryX=0.47;entryY=0.039;entryDx=0;entryDy=0;entryPerimeter=0;" parent="WIyWlLk6GJQsqaUBKTNV-1" edge="1">
                    <mxGeometry width="100" relative="1" as="geometry">
                        <mxPoint x="-228" y="7390" as="sourcePoint"/>
                        <mxPoint x="-99.75" y="7461.56" as="targetPoint"/>
                        <Array as="points">
                            <mxPoint x="-98" y="7390"/>
                            <mxPoint x="-98" y="7430"/>
                            <mxPoint x="-100" y="7430"/>
                        </Array>
                    </mxGeometry>
                </mxCell>
                <mxCell id="307" value="F" style="text;html=1;align=center;verticalAlign=middle;resizable=0;points=[];autosize=1;strokeColor=none;fillColor=none;" parent="WIyWlLk6GJQsqaUBKTNV-1" vertex="1">
                    <mxGeometry x="-178" y="7400" width="30" height="30" as="geometry"/>
                </mxCell>
                <mxCell id="308" value="" style="shape=waypoint;sketch=0;size=6;pointerEvents=1;points=[];fillColor=none;resizable=0;rotatable=0;perimeter=centerPerimeter;snapToPoint=1;" parent="WIyWlLk6GJQsqaUBKTNV-1" vertex="1">
                    <mxGeometry x="-243" y="7580" width="20" height="20" as="geometry"/>
                </mxCell>
                <mxCell id="309" value="" style="endArrow=classic;html=1;exitX=0.467;exitY=0.828;exitDx=0;exitDy=0;exitPerimeter=0;entryX=0.518;entryY=-0.017;entryDx=0;entryDy=0;entryPerimeter=0;" parent="WIyWlLk6GJQsqaUBKTNV-1" source="308" target="328" edge="1">
                    <mxGeometry width="50" height="50" relative="1" as="geometry">
                        <mxPoint x="392" y="6949" as="sourcePoint"/>
                        <mxPoint x="-310" y="7650" as="targetPoint"/>
                    </mxGeometry>
                </mxCell>
                <mxCell id="310" value="" style="endArrow=none;html=1;exitX=0.625;exitY=1;exitDx=0;exitDy=0;exitPerimeter=0;" parent="WIyWlLk6GJQsqaUBKTNV-1" source="304" edge="1">
                    <mxGeometry width="50" height="50" relative="1" as="geometry">
                        <mxPoint x="-308" y="7610" as="sourcePoint"/>
                        <mxPoint x="-358" y="7580" as="targetPoint"/>
                    </mxGeometry>
                </mxCell>
                <mxCell id="311" value="" style="endArrow=none;html=1;" parent="WIyWlLk6GJQsqaUBKTNV-1" edge="1">
                    <mxGeometry width="50" height="50" relative="1" as="geometry">
                        <mxPoint x="-358" y="7580" as="sourcePoint"/>
                        <mxPoint x="-228" y="7590" as="targetPoint"/>
                    </mxGeometry>
                </mxCell>
                <mxCell id="312" value="" style="endArrow=none;html=1;entryX=0.6;entryY=1;entryDx=0;entryDy=0;entryPerimeter=0;" parent="WIyWlLk6GJQsqaUBKTNV-1" target="313" edge="1">
                    <mxGeometry width="50" height="50" relative="1" as="geometry">
                        <mxPoint x="-228" y="7590" as="sourcePoint"/>
                        <mxPoint x="-120" y="7520" as="targetPoint"/>
                    </mxGeometry>
                </mxCell>
                <mxCell id="328" value="TTB&amp;gt;=5" style="rhombus;whiteSpace=wrap;html=1;" parent="WIyWlLk6GJQsqaUBKTNV-1" vertex="1">
                    <mxGeometry x="-350.75" y="7659" width="80" height="80" as="geometry"/>
                </mxCell>
                <mxCell id="329" value="FB=0" style="whiteSpace=wrap;html=1;" parent="WIyWlLk6GJQsqaUBKTNV-1" vertex="1">
                    <mxGeometry x="-202" y="7769" width="100" height="40" as="geometry"/>
                </mxCell>
                <mxCell id="330" value="T" style="text;html=1;align=center;verticalAlign=middle;resizable=0;points=[];autosize=1;strokeColor=none;fillColor=none;" parent="WIyWlLk6GJQsqaUBKTNV-1" vertex="1">
                    <mxGeometry x="-452" y="7709" width="30" height="30" as="geometry"/>
                </mxCell>
                <mxCell id="331" value="&lt;div&gt;TTH/5=FB&lt;/div&gt;&lt;div&gt;FB X 5-TTB=TFB&lt;/div&gt;" style="rounded=0;whiteSpace=wrap;html=1;" parent="WIyWlLk6GJQsqaUBKTNV-1" vertex="1">
                    <mxGeometry x="-475" y="7769" width="120" height="60" as="geometry"/>
                </mxCell>
                <mxCell id="332" value="" style="edgeStyle=segmentEdgeStyle;endArrow=classic;html=1;curved=0;rounded=0;endSize=8;startSize=8;sourcePerimeterSpacing=0;targetPerimeterSpacing=0;" parent="WIyWlLk6GJQsqaUBKTNV-1" target="331" edge="1">
                    <mxGeometry width="100" relative="1" as="geometry">
                        <mxPoint x="-352.5" y="7699" as="sourcePoint"/>
                        <mxPoint x="337.5" y="7078" as="targetPoint"/>
                        <Array as="points">
                            <mxPoint x="-412" y="7699"/>
                        </Array>
                    </mxGeometry>
                </mxCell>
                <mxCell id="333" value="" style="edgeStyle=segmentEdgeStyle;endArrow=classic;html=1;curved=0;rounded=0;endSize=8;startSize=8;sourcePerimeterSpacing=0;targetPerimeterSpacing=0;entryX=0.47;entryY=0.039;entryDx=0;entryDy=0;entryPerimeter=0;" parent="WIyWlLk6GJQsqaUBKTNV-1" edge="1">
                    <mxGeometry width="100" relative="1" as="geometry">
                        <mxPoint x="-270" y="7699" as="sourcePoint"/>
                        <mxPoint x="-141.75" y="7770.56" as="targetPoint"/>
                        <Array as="points">
                            <mxPoint x="-140" y="7699"/>
                            <mxPoint x="-140" y="7739"/>
                            <mxPoint x="-142" y="7739"/>
                        </Array>
                    </mxGeometry>
                </mxCell>
                <mxCell id="334" value="F" style="text;html=1;align=center;verticalAlign=middle;resizable=0;points=[];autosize=1;strokeColor=none;fillColor=none;" parent="WIyWlLk6GJQsqaUBKTNV-1" vertex="1">
                    <mxGeometry x="-220" y="7709" width="30" height="30" as="geometry"/>
                </mxCell>
                <mxCell id="335" value="" style="shape=waypoint;sketch=0;size=6;pointerEvents=1;points=[];fillColor=none;resizable=0;rotatable=0;perimeter=centerPerimeter;snapToPoint=1;" parent="WIyWlLk6GJQsqaUBKTNV-1" vertex="1">
                    <mxGeometry x="-285" y="7889" width="20" height="20" as="geometry"/>
                </mxCell>
                <mxCell id="336" value="" style="endArrow=classic;html=1;exitX=0.467;exitY=0.828;exitDx=0;exitDy=0;exitPerimeter=0;" parent="WIyWlLk6GJQsqaUBKTNV-1" source="335" edge="1">
                    <mxGeometry width="50" height="50" relative="1" as="geometry">
                        <mxPoint x="350" y="7258" as="sourcePoint"/>
                        <mxPoint x="-352" y="7959" as="targetPoint"/>
                    </mxGeometry>
                </mxCell>
                <mxCell id="337" value="" style="endArrow=none;html=1;exitX=0.625;exitY=1;exitDx=0;exitDy=0;exitPerimeter=0;" parent="WIyWlLk6GJQsqaUBKTNV-1" source="331" edge="1">
                    <mxGeometry width="50" height="50" relative="1" as="geometry">
                        <mxPoint x="-350" y="7919" as="sourcePoint"/>
                        <mxPoint x="-400" y="7889" as="targetPoint"/>
                    </mxGeometry>
                </mxCell>
                <mxCell id="338" value="" style="endArrow=none;html=1;" parent="WIyWlLk6GJQsqaUBKTNV-1" edge="1">
                    <mxGeometry width="50" height="50" relative="1" as="geometry">
                        <mxPoint x="-400" y="7889" as="sourcePoint"/>
                        <mxPoint x="-270" y="7899" as="targetPoint"/>
                    </mxGeometry>
                </mxCell>
                <mxCell id="339" value="" style="endArrow=none;html=1;entryX=0.6;entryY=1;entryDx=0;entryDy=0;entryPerimeter=0;" parent="WIyWlLk6GJQsqaUBKTNV-1" target="329" edge="1">
                    <mxGeometry width="50" height="50" relative="1" as="geometry">
                        <mxPoint x="-270" y="7899" as="sourcePoint"/>
                        <mxPoint x="-162" y="7829" as="targetPoint"/>
                    </mxGeometry>
                </mxCell>
                <mxCell id="340" value="OB=0" style="whiteSpace=wrap;html=1;" parent="WIyWlLk6GJQsqaUBKTNV-1" vertex="1">
                    <mxGeometry x="-241" y="8069" width="100" height="40" as="geometry"/>
                </mxCell>
                <mxCell id="341" value="T" style="text;html=1;align=center;verticalAlign=middle;resizable=0;points=[];autosize=1;strokeColor=none;fillColor=none;" parent="WIyWlLk6GJQsqaUBKTNV-1" vertex="1">
                    <mxGeometry x="-491" y="8009" width="30" height="30" as="geometry"/>
                </mxCell>
                <mxCell id="342" value="&lt;div&gt;TFB/1=OB&lt;/div&gt;&lt;div&gt;OB X 1-TFB=TOB&lt;/div&gt;" style="rounded=0;whiteSpace=wrap;html=1;" parent="WIyWlLk6GJQsqaUBKTNV-1" vertex="1">
                    <mxGeometry x="-514" y="8069" width="120" height="60" as="geometry"/>
                </mxCell>
                <mxCell id="343" value="" style="edgeStyle=segmentEdgeStyle;endArrow=classic;html=1;curved=0;rounded=0;endSize=8;startSize=8;sourcePerimeterSpacing=0;targetPerimeterSpacing=0;" parent="WIyWlLk6GJQsqaUBKTNV-1" target="342" edge="1">
                    <mxGeometry width="100" relative="1" as="geometry">
                        <mxPoint x="-391.5" y="7999" as="sourcePoint"/>
                        <mxPoint x="298.5" y="7378" as="targetPoint"/>
                        <Array as="points">
                            <mxPoint x="-451" y="7999"/>
                        </Array>
                    </mxGeometry>
                </mxCell>
                <mxCell id="344" value="" style="edgeStyle=segmentEdgeStyle;endArrow=classic;html=1;curved=0;rounded=0;endSize=8;startSize=8;sourcePerimeterSpacing=0;targetPerimeterSpacing=0;entryX=0.47;entryY=0.039;entryDx=0;entryDy=0;entryPerimeter=0;" parent="WIyWlLk6GJQsqaUBKTNV-1" edge="1">
                    <mxGeometry width="100" relative="1" as="geometry">
                        <mxPoint x="-309" y="7999" as="sourcePoint"/>
                        <mxPoint x="-180.75" y="8070.56" as="targetPoint"/>
                        <Array as="points">
                            <mxPoint x="-179" y="7999"/>
                            <mxPoint x="-179" y="8039"/>
                            <mxPoint x="-181" y="8039"/>
                        </Array>
                    </mxGeometry>
                </mxCell>
                <mxCell id="346" value="" style="shape=waypoint;sketch=0;size=6;pointerEvents=1;points=[];fillColor=none;resizable=0;rotatable=0;perimeter=centerPerimeter;snapToPoint=1;" parent="WIyWlLk6GJQsqaUBKTNV-1" vertex="1">
                    <mxGeometry x="-324" y="8189" width="20" height="20" as="geometry"/>
                </mxCell>
                <mxCell id="347" value="" style="endArrow=classic;html=1;exitX=0.467;exitY=0.828;exitDx=0;exitDy=0;exitPerimeter=0;" parent="WIyWlLk6GJQsqaUBKTNV-1" source="346" edge="1">
                    <mxGeometry width="50" height="50" relative="1" as="geometry">
                        <mxPoint x="311" y="7558" as="sourcePoint"/>
                        <mxPoint x="-330" y="8270" as="targetPoint"/>
                    </mxGeometry>
                </mxCell>
                <mxCell id="348" value="" style="endArrow=none;html=1;exitX=0.625;exitY=1;exitDx=0;exitDy=0;exitPerimeter=0;" parent="WIyWlLk6GJQsqaUBKTNV-1" source="342" edge="1">
                    <mxGeometry width="50" height="50" relative="1" as="geometry">
                        <mxPoint x="-389" y="8219" as="sourcePoint"/>
                        <mxPoint x="-439" y="8189" as="targetPoint"/>
                    </mxGeometry>
                </mxCell>
                <mxCell id="349" value="" style="endArrow=none;html=1;" parent="WIyWlLk6GJQsqaUBKTNV-1" edge="1">
                    <mxGeometry width="50" height="50" relative="1" as="geometry">
                        <mxPoint x="-439" y="8189" as="sourcePoint"/>
                        <mxPoint x="-309" y="8199" as="targetPoint"/>
                    </mxGeometry>
                </mxCell>
                <mxCell id="350" value="" style="endArrow=none;html=1;entryX=0.6;entryY=1;entryDx=0;entryDy=0;entryPerimeter=0;" parent="WIyWlLk6GJQsqaUBKTNV-1" target="340" edge="1">
                    <mxGeometry width="50" height="50" relative="1" as="geometry">
                        <mxPoint x="-309" y="8199" as="sourcePoint"/>
                        <mxPoint x="-201" y="8129" as="targetPoint"/>
                    </mxGeometry>
                </mxCell>
                <mxCell id="357" value="" style="endArrow=classic;html=1;exitX=0.459;exitY=0.988;exitDx=0;exitDy=0;exitPerimeter=0;" parent="WIyWlLk6GJQsqaUBKTNV-1" source="355" edge="1">
                    <mxGeometry width="50" height="50" relative="1" as="geometry">
                        <mxPoint x="-400" y="6560" as="sourcePoint"/>
                        <mxPoint x="-590" y="9370" as="targetPoint"/>
                    </mxGeometry>
                </mxCell>
                <mxCell id="369" value="" style="endArrow=none;html=1;entryX=0.473;entryY=1.019;entryDx=0;entryDy=0;entryPerimeter=0;startArrow=none;" parent="WIyWlLk6GJQsqaUBKTNV-1" source="371" target="365" edge="1">
                    <mxGeometry width="50" height="50" relative="1" as="geometry">
                        <mxPoint x="-590" y="9340" as="sourcePoint"/>
                        <mxPoint x="-330" y="9360" as="targetPoint"/>
                    </mxGeometry>
                </mxCell>
                <mxCell id="372" value="" style="endArrow=none;html=1;entryDx=0;entryDy=0;entryPerimeter=0;" parent="WIyWlLk6GJQsqaUBKTNV-1" target="371" edge="1">
                    <mxGeometry width="50" height="50" relative="1" as="geometry">
                        <mxPoint x="-590" y="9340" as="sourcePoint"/>
                        <mxPoint x="-350.8700000000001" y="9244.438999999998" as="targetPoint"/>
                    </mxGeometry>
                </mxCell>
                <mxCell id="371" value="" style="shape=waypoint;sketch=0;size=6;pointerEvents=1;points=[];fillColor=none;resizable=0;rotatable=0;perimeter=centerPerimeter;snapToPoint=1;" parent="WIyWlLk6GJQsqaUBKTNV-1" vertex="1">
                    <mxGeometry x="-600" y="9330" width="20" height="20" as="geometry"/>
                </mxCell>
            </root>
        </mxGraphModel>
    </diagram>
</mxfile>